<svg width="851" height="926" viewBox="0 0 851 926" fill="none" xmlns="http://www.w3.org/2000/svg">
<path d="M100.5 286.925V79.9446L419.616 1.54459L738.61 79.8969L741.786 286.641C741.786 286.645 741.786 286.648 741.786 286.652C741.782 522.038 623.74 716.554 426.116 807.441L419.695 810.396L413.274 807.442C217.475 717.397 100.5 522.871 100.5 286.925Z" fill="#939393" stroke="#703B3B" stroke-width="3"/>
<path d="M739.892 78.5617L421 0V812C433.93 809.186 484.198 779.559 507.405 764.511C598.162 700.02 628 652.531 653.486 610.905C719.378 507.72 743 386.946 743 286.105L739.892 78.5617Z" fill="url(#paint0_linear_103_3)"/>
<path d="M102.108 78.5617L421 0V812C408.07 809.186 357.802 779.559 334.595 764.511C243.838 700.02 214 652.531 188.514 610.905C122.622 507.72 99.0001 386.946 99 286.105L102.108 78.5617Z" fill="url(#paint1_linear_103_3)"/>
<path d="M291.373 94.0842L419.493 60.5169L675.38 127.544L677.929 304.547C677.929 505.661 583.345 671.906 424.974 749.58L419.556 752.238L414.138 749.58C257.226 672.625 163.5 506.371 163.5 304.789V127.587L291.373 94.0842Z" fill="#CFB53B" stroke="black"/>
<path d="M371.859 110.96C371.592 117.627 371.459 122.32 371.459 125.04L371.579 129.24C371.659 129.88 372.365 130.347 373.699 130.64C374.019 130.693 374.565 130.8 375.339 130.96L375.219 132.12C373.539 132.04 371.712 132 369.739 132C367.765 132 366.219 132.04 365.099 132.12L364.979 130.96C366.259 130.693 367.139 130.453 367.619 130.24C368.099 130.027 368.365 129.693 368.419 129.24C368.952 124.92 369.219 119.4 369.219 112.68L369.059 107.36C369.005 106.88 368.765 106.547 368.339 106.36C367.912 106.147 367.059 105.907 365.779 105.64L365.899 104.48C367.579 104.56 369.899 104.6 372.859 104.6L382.379 128.2L391.899 104.6C394.939 104.6 397.299 104.56 398.979 104.48L399.099 105.64C397.819 105.907 396.965 106.147 396.539 106.36C396.112 106.547 395.859 106.893 395.779 107.4C395.699 107.907 395.659 108.787 395.659 110.04C395.659 111.293 395.725 114.053 395.859 118.32C396.125 123.6 396.339 126.987 396.499 128.48L396.579 129.24C396.632 129.72 396.885 130.067 397.339 130.28C397.792 130.467 398.672 130.693 399.979 130.96L399.859 132.12C398.179 132.04 396.352 132 394.379 132C392.405 132 390.579 132.04 388.899 132.12L388.779 130.96C390.165 130.693 391.099 130.453 391.579 130.24C392.085 130.027 392.339 129.693 392.339 129.24C392.365 128.36 392.379 126.467 392.379 123.56C392.379 120.653 392.205 116.453 391.859 110.96H391.619L383.059 131.96L380.579 132.4L372.019 110.96H371.859ZM417.214 130.52C419.72 130.52 421.774 130.013 423.374 129C424.974 127.96 426.04 126.56 426.574 124.8L427.654 125.28C427.36 126.24 427.054 128.027 426.734 130.64C423.454 131.867 420.24 132.48 417.094 132.48C412.72 132.48 409.254 131.293 406.694 128.92C404.134 126.52 402.854 123.2 402.854 118.96C402.854 114.72 404.12 111.213 406.654 108.44C409.187 105.64 412.654 104.24 417.054 104.24C418.28 104.24 419.654 104.347 421.174 104.56C422.694 104.747 423.734 104.84 424.294 104.84C424.854 104.84 425.454 104.76 426.094 104.6V105.2C426.094 107.147 426.254 109.027 426.574 110.84L425.494 111.32C424.427 107.827 421.6 106.08 417.014 106.08C414.347 106.08 412.054 107.027 410.134 108.92C409.174 109.853 408.414 111.093 407.854 112.64C407.32 114.187 407.054 115.853 407.054 117.64C407.054 119.4 407.24 121 407.614 122.44C407.987 123.88 408.56 125.213 409.334 126.44C410.107 127.667 411.174 128.653 412.534 129.4C413.894 130.147 415.454 130.52 417.214 130.52ZM437.541 118.92C437.541 123.96 437.648 127.16 437.861 128.52L437.981 129.28C438.221 130.133 439.568 130.56 442.021 130.56C443.248 130.56 444.221 130.52 444.941 130.44C445.688 130.333 446.475 130.107 447.301 129.76C448.848 129.147 450.021 127.613 450.821 125.16L451.901 125.64C451.421 127.107 451.101 129.227 450.941 132H434.941C433.421 132 431.821 132.04 430.141 132.12L430.021 130.96C431.381 130.693 432.301 130.453 432.781 130.24C433.261 130.027 433.528 129.693 433.581 129.24C433.821 127.693 433.941 124.853 433.941 120.72C433.941 114 433.861 109.813 433.701 108.16L433.621 107.36C433.568 106.88 433.328 106.547 432.901 106.36C432.475 106.147 431.621 105.907 430.341 105.64L430.461 104.48C432.141 104.56 435.301 104.6 439.941 104.6C444.581 104.6 447.995 104.52 450.181 104.36V104.96C450.181 107.067 450.341 109.027 450.661 110.84L449.581 111.32C448.888 109.133 448.061 107.747 447.101 107.16C446.141 106.573 444.328 106.28 441.661 106.28C440.461 106.28 439.568 106.333 438.981 106.44C438.395 106.547 438.061 106.787 437.981 107.16C437.715 108.893 437.568 112.28 437.541 117.32C440.928 117.32 442.955 117.24 443.621 117.08C444.315 116.92 444.755 116.627 444.941 116.2C445.155 115.773 445.395 114.867 445.661 113.48L447.061 113.64C446.848 115.187 446.741 116.667 446.741 118.08C446.741 119.493 446.848 120.987 447.061 122.56L445.661 122.76C445.395 121.373 445.155 120.467 444.941 120.04C444.755 119.613 444.315 119.32 443.621 119.16C442.955 119 440.928 118.92 437.541 118.92ZM454.197 104.36C456.384 104.52 460.357 104.6 466.117 104.6C471.877 104.6 475.851 104.52 478.037 104.36V104.96C478.037 107.067 478.197 109.027 478.517 110.84L477.437 111.32C476.744 109.133 475.917 107.747 474.957 107.16C473.997 106.573 472.184 106.28 469.517 106.28C468.717 106.28 468.277 106.64 468.197 107.36C467.984 108.933 467.877 111.787 467.877 115.92C467.877 122.613 467.957 126.773 468.117 128.4L468.197 129.24C468.251 129.72 468.504 130.067 468.957 130.28C469.411 130.467 470.291 130.693 471.597 130.96L471.477 132.12C469.797 132.04 467.971 132 465.997 132C464.024 132 462.197 132.04 460.517 132.12L460.397 130.96C461.757 130.693 462.677 130.453 463.157 130.24C463.637 130.027 463.904 129.693 463.957 129.24C464.171 127.667 464.277 124.813 464.277 120.68C464.277 113.987 464.197 109.813 464.037 108.16L463.957 107.36C463.877 106.64 463.464 106.28 462.717 106.28C460.051 106.28 458.237 106.573 457.277 107.16C456.317 107.747 455.491 109.133 454.797 111.32L453.717 110.84C454.037 109.027 454.197 107.067 454.197 104.96V104.36Z" fill="white"/>
<path d="M367.503 453.448C364.559 453.448 361.914 452.936 359.567 451.912C357.263 450.845 355.45 449.395 354.127 447.56C352.805 445.683 352.122 443.528 352.079 441.096H358.287C358.501 443.187 359.354 444.957 360.847 446.408C362.383 447.816 364.602 448.52 367.503 448.52C370.277 448.52 372.453 447.837 374.031 446.472C375.653 445.064 376.463 443.272 376.463 441.096C376.463 439.389 375.994 438.003 375.055 436.936C374.117 435.869 372.943 435.059 371.535 434.504C370.127 433.949 368.229 433.352 365.839 432.712C362.895 431.944 360.527 431.176 358.735 430.408C356.986 429.64 355.471 428.445 354.191 426.824C352.954 425.16 352.335 422.941 352.335 420.168C352.335 417.736 352.954 415.581 354.191 413.704C355.429 411.827 357.157 410.376 359.375 409.352C361.637 408.328 364.218 407.816 367.119 407.816C371.301 407.816 374.714 408.861 377.359 410.952C380.047 413.043 381.562 415.816 381.903 419.272H375.503C375.29 417.565 374.394 416.072 372.815 414.792C371.237 413.469 369.146 412.808 366.543 412.808C364.111 412.808 362.127 413.448 360.591 414.728C359.055 415.965 358.287 417.715 358.287 419.976C358.287 421.597 358.735 422.92 359.631 423.944C360.57 424.968 361.701 425.757 363.023 426.312C364.389 426.824 366.287 427.421 368.719 428.104C371.663 428.915 374.031 429.725 375.823 430.536C377.615 431.304 379.151 432.52 380.431 434.184C381.711 435.805 382.351 438.024 382.351 440.84C382.351 443.016 381.775 445.064 380.623 446.984C379.471 448.904 377.765 450.461 375.503 451.656C373.242 452.851 370.575 453.448 367.503 453.448ZM424.01 453L413.386 434.76H406.346V453H400.522V408.392H414.922C418.292 408.392 421.13 408.968 423.434 410.12C425.78 411.272 427.53 412.829 428.682 414.792C429.834 416.755 430.41 418.995 430.41 421.512C430.41 424.584 429.514 427.293 427.722 429.64C425.972 431.987 423.327 433.544 419.786 434.312L430.986 453H424.01ZM406.346 430.088H414.922C418.079 430.088 420.447 429.32 422.026 427.784C423.604 426.205 424.394 424.115 424.394 421.512C424.394 418.867 423.604 416.819 422.026 415.368C420.49 413.917 418.122 413.192 414.922 413.192H406.346V430.088ZM446.883 430.664C446.883 426.312 447.865 422.408 449.827 418.952C451.79 415.453 454.457 412.723 457.827 410.76C461.241 408.797 465.017 407.816 469.155 407.816C474.019 407.816 478.265 408.989 481.891 411.336C485.518 413.683 488.163 417.011 489.827 421.32H482.851C481.614 418.632 479.822 416.563 477.475 415.112C475.171 413.661 472.398 412.936 469.155 412.936C466.041 412.936 463.246 413.661 460.771 415.112C458.297 416.563 456.355 418.632 454.947 421.32C453.539 423.965 452.835 427.08 452.835 430.664C452.835 434.205 453.539 437.32 454.947 440.008C456.355 442.653 458.297 444.701 460.771 446.152C463.246 447.603 466.041 448.328 469.155 448.328C472.398 448.328 475.171 447.624 477.475 446.216C479.822 444.765 481.614 442.696 482.851 440.008H489.827C488.163 444.275 485.518 447.581 481.891 449.928C478.265 452.232 474.019 453.384 469.155 453.384C465.017 453.384 461.241 452.424 457.827 450.504C454.457 448.541 451.79 445.832 449.827 442.376C447.865 438.92 446.883 435.016 446.883 430.664Z" fill="white"/>
<path d="M236.365 507.315C234.295 507.315 232.435 506.955 230.785 506.235C229.165 505.485 227.89 504.465 226.96 503.175C226.03 501.855 225.55 500.34 225.52 498.63H229.885C230.035 500.1 230.635 501.345 231.685 502.365C232.765 503.355 234.325 503.85 236.365 503.85C238.315 503.85 239.845 503.37 240.955 502.41C242.095 501.42 242.665 500.16 242.665 498.63C242.665 497.43 242.335 496.455 241.675 495.705C241.015 494.955 240.19 494.385 239.2 493.995C238.21 493.605 236.875 493.185 235.195 492.735C233.125 492.195 231.46 491.655 230.2 491.115C228.97 490.575 227.905 489.735 227.005 488.595C226.135 487.425 225.7 485.865 225.7 483.915C225.7 482.205 226.135 480.69 227.005 479.37C227.875 478.05 229.09 477.03 230.65 476.31C232.24 475.59 234.055 475.23 236.095 475.23C239.035 475.23 241.435 475.965 243.295 477.435C245.185 478.905 246.25 480.855 246.49 483.285H241.99C241.84 482.085 241.21 481.035 240.1 480.135C238.99 479.205 237.52 478.74 235.69 478.74C233.98 478.74 232.585 479.19 231.505 480.09C230.425 480.96 229.885 482.19 229.885 483.78C229.885 484.92 230.2 485.85 230.83 486.57C231.49 487.29 232.285 487.845 233.215 488.235C234.175 488.595 235.51 489.015 237.22 489.495C239.29 490.065 240.955 490.635 242.215 491.205C243.475 491.745 244.555 492.6 245.455 493.77C246.355 494.91 246.805 496.47 246.805 498.45C246.805 499.98 246.4 501.42 245.59 502.77C244.78 504.12 243.58 505.215 241.99 506.055C240.4 506.895 238.525 507.315 236.365 507.315ZM257.826 485.715V500.25C257.826 501.45 258.081 502.305 258.591 502.815C259.101 503.295 259.986 503.535 261.246 503.535H264.261V507H260.571C258.291 507 256.581 506.475 255.441 505.425C254.301 504.375 253.731 502.65 253.731 500.25V485.715H250.536V482.34H253.731V476.13H257.826V482.34H264.261V485.715H257.826ZM291.093 482.34V507H286.998V503.355C286.218 504.615 285.123 505.605 283.713 506.325C282.333 507.015 280.803 507.36 279.123 507.36C277.203 507.36 275.478 506.97 273.948 506.19C272.418 505.38 271.203 504.18 270.303 502.59C269.433 501 268.998 499.065 268.998 496.785V482.34H273.048V496.245C273.048 498.675 273.663 500.55 274.893 501.87C276.123 503.16 277.803 503.805 279.933 503.805C282.123 503.805 283.848 503.13 285.108 501.78C286.368 500.43 286.998 498.465 286.998 495.885V482.34H291.093ZM296.477 494.58C296.477 492.06 296.987 489.855 298.007 487.965C299.027 486.045 300.422 484.56 302.192 483.51C303.992 482.46 306.002 481.935 308.222 481.935C310.142 481.935 311.927 482.385 313.577 483.285C315.227 484.155 316.487 485.31 317.357 486.75V473.7H321.497V507H317.357V502.365C316.547 503.835 315.347 505.05 313.757 506.01C312.167 506.94 310.307 507.405 308.177 507.405C305.987 507.405 303.992 506.865 302.192 505.785C300.422 504.705 299.027 503.19 298.007 501.24C296.987 499.29 296.477 497.07 296.477 494.58ZM317.357 494.625C317.357 492.765 316.982 491.145 316.232 489.765C315.482 488.385 314.462 487.335 313.172 486.615C311.912 485.865 310.517 485.49 308.987 485.49C307.457 485.49 306.062 485.85 304.802 486.57C303.542 487.29 302.537 488.34 301.787 489.72C301.037 491.1 300.662 492.72 300.662 494.58C300.662 496.47 301.037 498.12 301.787 499.53C302.537 500.91 303.542 501.975 304.802 502.725C306.062 503.445 307.457 503.805 308.987 503.805C310.517 503.805 311.912 503.445 313.172 502.725C314.462 501.975 315.482 500.91 316.232 499.53C316.982 498.12 317.357 496.485 317.357 494.625ZM350.917 493.725C350.917 494.505 350.872 495.33 350.782 496.2H331.072C331.222 498.63 332.047 500.535 333.547 501.915C335.077 503.265 336.922 503.94 339.082 503.94C340.852 503.94 342.322 503.535 343.492 502.725C344.692 501.885 345.532 500.775 346.012 499.395H350.422C349.762 501.765 348.442 503.7 346.462 505.2C344.482 506.67 342.022 507.405 339.082 507.405C336.742 507.405 334.642 506.88 332.782 505.83C330.952 504.78 329.512 503.295 328.462 501.375C327.412 499.425 326.887 497.175 326.887 494.625C326.887 492.075 327.397 489.84 328.417 487.92C329.437 486 330.862 484.53 332.692 483.51C334.552 482.46 336.682 481.935 339.082 481.935C341.422 481.935 343.492 482.445 345.292 483.465C347.092 484.485 348.472 485.895 349.432 487.695C350.422 489.465 350.917 491.475 350.917 493.725ZM346.687 492.87C346.687 491.31 346.342 489.975 345.652 488.865C344.962 487.725 344.017 486.87 342.817 486.3C341.647 485.7 340.342 485.4 338.902 485.4C336.832 485.4 335.062 486.06 333.592 487.38C332.152 488.7 331.327 490.53 331.117 492.87H346.687ZM368.337 481.89C371.337 481.89 373.767 482.805 375.627 484.635C377.487 486.435 378.417 489.045 378.417 492.465V507H374.367V493.05C374.367 490.59 373.752 488.715 372.522 487.425C371.292 486.105 369.612 485.445 367.482 485.445C365.322 485.445 363.597 486.12 362.307 487.47C361.047 488.82 360.417 490.785 360.417 493.365V507H356.322V482.34H360.417V485.85C361.227 484.59 362.322 483.615 363.702 482.925C365.112 482.235 366.657 481.89 368.337 481.89ZM390.102 485.715V500.25C390.102 501.45 390.357 502.305 390.867 502.815C391.377 503.295 392.262 503.535 393.522 503.535H396.537V507H392.847C390.567 507 388.857 506.475 387.717 505.425C386.577 504.375 386.007 502.65 386.007 500.25V485.715H382.812V482.34H386.007V476.13H390.102V482.34H396.537V485.715H390.102ZM430.01 507L422.54 494.175H417.59V507H413.495V475.635H423.62C425.99 475.635 427.985 476.04 429.605 476.85C431.255 477.66 432.485 478.755 433.295 480.135C434.105 481.515 434.51 483.09 434.51 484.86C434.51 487.02 433.88 488.925 432.62 490.575C431.39 492.225 429.53 493.32 427.04 493.86L434.915 507H430.01ZM417.59 490.89H423.62C425.84 490.89 427.505 490.35 428.615 489.27C429.725 488.16 430.28 486.69 430.28 484.86C430.28 483 429.725 481.56 428.615 480.54C427.535 479.52 425.87 479.01 423.62 479.01H417.59V490.89ZM463.373 493.725C463.373 494.505 463.328 495.33 463.238 496.2H443.528C443.678 498.63 444.503 500.535 446.003 501.915C447.533 503.265 449.378 503.94 451.538 503.94C453.308 503.94 454.778 503.535 455.948 502.725C457.148 501.885 457.988 500.775 458.468 499.395H462.878C462.218 501.765 460.898 503.7 458.918 505.2C456.938 506.67 454.478 507.405 451.538 507.405C449.198 507.405 447.098 506.88 445.238 505.83C443.408 504.78 441.968 503.295 440.918 501.375C439.868 499.425 439.343 497.175 439.343 494.625C439.343 492.075 439.853 489.84 440.873 487.92C441.893 486 443.318 484.53 445.148 483.51C447.008 482.46 449.138 481.935 451.538 481.935C453.878 481.935 455.948 482.445 457.748 483.465C459.548 484.485 460.928 485.895 461.888 487.695C462.878 489.465 463.373 491.475 463.373 493.725ZM459.143 492.87C459.143 491.31 458.798 489.975 458.108 488.865C457.418 487.725 456.473 486.87 455.273 486.3C454.103 485.7 452.798 485.4 451.358 485.4C449.288 485.4 447.518 486.06 446.048 487.38C444.608 488.7 443.783 490.53 443.573 492.87H459.143ZM477.508 507.405C475.618 507.405 473.923 507.09 472.423 506.46C470.923 505.8 469.738 504.9 468.868 503.76C467.998 502.59 467.518 501.255 467.428 499.755H471.658C471.778 500.985 472.348 501.99 473.368 502.77C474.418 503.55 475.783 503.94 477.463 503.94C479.023 503.94 480.253 503.595 481.153 502.905C482.053 502.215 482.503 501.345 482.503 500.295C482.503 499.215 482.023 498.42 481.063 497.91C480.103 497.37 478.618 496.845 476.608 496.335C474.778 495.855 473.278 495.375 472.108 494.895C470.968 494.385 469.978 493.65 469.138 492.69C468.328 491.7 467.923 490.41 467.923 488.82C467.923 487.56 468.298 486.405 469.048 485.355C469.798 484.305 470.863 483.48 472.243 482.88C473.623 482.25 475.198 481.935 476.968 481.935C479.698 481.935 481.903 482.625 483.583 484.005C485.263 485.385 486.163 487.275 486.283 489.675H482.188C482.098 488.385 481.573 487.35 480.613 486.57C479.683 485.79 478.423 485.4 476.833 485.4C475.363 485.4 474.193 485.715 473.323 486.345C472.453 486.975 472.018 487.8 472.018 488.82C472.018 489.63 472.273 490.305 472.783 490.845C473.323 491.355 473.983 491.775 474.763 492.105C475.573 492.405 476.683 492.75 478.093 493.14C479.863 493.62 481.303 494.1 482.413 494.58C483.523 495.03 484.468 495.72 485.248 496.65C486.058 497.58 486.478 498.795 486.508 500.295C486.508 501.645 486.133 502.86 485.383 503.94C484.633 505.02 483.568 505.875 482.188 506.505C480.838 507.105 479.278 507.405 477.508 507.405ZM514.789 493.725C514.789 494.505 514.744 495.33 514.654 496.2H494.944C495.094 498.63 495.919 500.535 497.419 501.915C498.949 503.265 500.794 503.94 502.954 503.94C504.724 503.94 506.194 503.535 507.364 502.725C508.564 501.885 509.404 500.775 509.884 499.395H514.294C513.634 501.765 512.314 503.7 510.334 505.2C508.354 506.67 505.894 507.405 502.954 507.405C500.614 507.405 498.514 506.88 496.654 505.83C494.824 504.78 493.384 503.295 492.334 501.375C491.284 499.425 490.759 497.175 490.759 494.625C490.759 492.075 491.269 489.84 492.289 487.92C493.309 486 494.734 484.53 496.564 483.51C498.424 482.46 500.554 481.935 502.954 481.935C505.294 481.935 507.364 482.445 509.164 483.465C510.964 484.485 512.344 485.895 513.304 487.695C514.294 489.465 514.789 491.475 514.789 493.725ZM510.559 492.87C510.559 491.31 510.214 489.975 509.524 488.865C508.834 487.725 507.889 486.87 506.689 486.3C505.519 485.7 504.214 485.4 502.774 485.4C500.704 485.4 498.934 486.06 497.464 487.38C496.024 488.7 495.199 490.53 494.989 492.87H510.559ZM518.664 494.58C518.664 492.06 519.174 489.855 520.194 487.965C521.214 486.045 522.609 484.56 524.379 483.51C526.179 482.46 528.174 481.935 530.364 481.935C532.524 481.935 534.399 482.4 535.989 483.33C537.579 484.26 538.764 485.43 539.544 486.84V482.34H543.684V507H539.544V502.41C538.734 503.85 537.519 505.05 535.899 506.01C534.309 506.94 532.449 507.405 530.319 507.405C528.129 507.405 526.149 506.865 524.379 505.785C522.609 504.705 521.214 503.19 520.194 501.24C519.174 499.29 518.664 497.07 518.664 494.58ZM539.544 494.625C539.544 492.765 539.169 491.145 538.419 489.765C537.669 488.385 536.649 487.335 535.359 486.615C534.099 485.865 532.704 485.49 531.174 485.49C529.644 485.49 528.249 485.85 526.989 486.57C525.729 487.29 524.724 488.34 523.974 489.72C523.224 491.1 522.849 492.72 522.849 494.58C522.849 496.47 523.224 498.12 523.974 499.53C524.724 500.91 525.729 501.975 526.989 502.725C528.249 503.445 529.644 503.805 531.174 503.805C532.704 503.805 534.099 503.445 535.359 502.725C536.649 501.975 537.669 500.91 538.419 499.53C539.169 498.12 539.544 496.485 539.544 494.625ZM554.7 486.345C555.42 484.935 556.44 483.84 557.76 483.06C559.11 482.28 560.745 481.89 562.665 481.89V486.12H561.585C556.995 486.12 554.7 488.61 554.7 493.59V507H550.605V482.34H554.7V486.345ZM565.862 494.625C565.862 492.075 566.372 489.855 567.392 487.965C568.412 486.045 569.822 484.56 571.622 483.51C573.452 482.46 575.537 481.935 577.877 481.935C580.907 481.935 583.397 482.67 585.347 484.14C587.327 485.61 588.632 487.65 589.262 490.26H584.852C584.432 488.76 583.607 487.575 582.377 486.705C581.177 485.835 579.677 485.4 577.877 485.4C575.537 485.4 573.647 486.21 572.207 487.83C570.767 489.42 570.047 491.685 570.047 494.625C570.047 497.595 570.767 499.89 572.207 501.51C573.647 503.13 575.537 503.94 577.877 503.94C579.677 503.94 581.177 503.52 582.377 502.68C583.577 501.84 584.402 500.64 584.852 499.08H589.262C588.602 501.6 587.282 503.625 585.302 505.155C583.322 506.655 580.847 507.405 577.877 507.405C575.537 507.405 573.452 506.88 571.622 505.83C569.822 504.78 568.412 503.295 567.392 501.375C566.372 499.455 565.862 497.205 565.862 494.625ZM606.966 481.89C608.826 481.89 610.506 482.295 612.006 483.105C613.506 483.885 614.676 485.07 615.516 486.66C616.386 488.25 616.821 490.185 616.821 492.465V507H612.771V493.05C612.771 490.59 612.156 488.715 610.926 487.425C609.696 486.105 608.016 485.445 605.886 485.445C603.726 485.445 602.001 486.12 600.711 487.47C599.451 488.82 598.821 490.785 598.821 493.365V507H594.726V473.7H598.821V485.85C599.631 484.59 600.741 483.615 602.151 482.925C603.591 482.235 605.196 481.89 606.966 481.89ZM338.137 552.295C338.137 549.235 338.827 546.49 340.207 544.06C341.587 541.6 343.462 539.68 345.832 538.3C348.232 536.92 350.887 536.23 353.797 536.23C357.217 536.23 360.202 537.055 362.752 538.705C365.302 540.355 367.162 542.695 368.332 545.725H363.427C362.557 543.835 361.297 542.38 359.647 541.36C358.027 540.34 356.077 539.83 353.797 539.83C351.607 539.83 349.642 540.34 347.902 541.36C346.162 542.38 344.797 543.835 343.807 545.725C342.817 547.585 342.322 549.775 342.322 552.295C342.322 554.785 342.817 556.975 343.807 558.865C344.797 560.725 346.162 562.165 347.902 563.185C349.642 564.205 351.607 564.715 353.797 564.715C356.077 564.715 358.027 564.22 359.647 563.23C361.297 562.21 362.557 560.755 363.427 558.865H368.332C367.162 561.865 365.302 564.19 362.752 565.84C360.202 567.46 357.217 568.27 353.797 568.27C350.887 568.27 348.232 567.595 345.832 566.245C343.462 564.865 341.587 562.96 340.207 560.53C338.827 558.1 338.137 555.355 338.137 552.295ZM385.183 568.405C382.873 568.405 380.773 567.88 378.883 566.83C377.023 565.78 375.553 564.295 374.473 562.375C373.423 560.425 372.898 558.175 372.898 555.625C372.898 553.105 373.438 550.885 374.518 548.965C375.628 547.015 377.128 545.53 379.018 544.51C380.908 543.46 383.023 542.935 385.363 542.935C387.703 542.935 389.818 543.46 391.708 544.51C393.598 545.53 395.083 547 396.163 548.92C397.273 550.84 397.828 553.075 397.828 555.625C397.828 558.175 397.258 560.425 396.118 562.375C395.008 564.295 393.493 565.78 391.573 566.83C389.653 567.88 387.523 568.405 385.183 568.405ZM385.183 564.805C386.653 564.805 388.033 564.46 389.323 563.77C390.613 563.08 391.648 562.045 392.428 560.665C393.238 559.285 393.643 557.605 393.643 555.625C393.643 553.645 393.253 551.965 392.473 550.585C391.693 549.205 390.673 548.185 389.413 547.525C388.153 546.835 386.788 546.49 385.318 546.49C383.818 546.49 382.438 546.835 381.178 547.525C379.948 548.185 378.958 549.205 378.208 550.585C377.458 551.965 377.083 553.645 377.083 555.625C377.083 557.635 377.443 559.33 378.163 560.71C378.913 562.09 379.903 563.125 381.133 563.815C382.363 564.475 383.713 564.805 385.183 564.805ZM425.082 543.34V568H420.987V564.355C420.207 565.615 419.112 566.605 417.702 567.325C416.322 568.015 414.792 568.36 413.112 568.36C411.192 568.36 409.467 567.97 407.937 567.19C406.407 566.38 405.192 565.18 404.292 563.59C403.422 562 402.987 560.065 402.987 557.785V543.34H407.037V557.245C407.037 559.675 407.652 561.55 408.882 562.87C410.112 564.16 411.792 564.805 413.922 564.805C416.112 564.805 417.837 564.13 419.097 562.78C420.357 561.43 420.987 559.465 420.987 556.885V543.34H425.082ZM444.011 542.89C447.011 542.89 449.441 543.805 451.301 545.635C453.161 547.435 454.091 550.045 454.091 553.465V568H450.041V554.05C450.041 551.59 449.426 549.715 448.196 548.425C446.966 547.105 445.286 546.445 443.156 546.445C440.996 546.445 439.271 547.12 437.981 548.47C436.721 549.82 436.091 551.785 436.091 554.365V568H431.996V543.34H436.091V546.85C436.901 545.59 437.996 544.615 439.376 543.925C440.786 543.235 442.331 542.89 444.011 542.89ZM459.25 555.625C459.25 553.075 459.76 550.855 460.78 548.965C461.8 547.045 463.21 545.56 465.01 544.51C466.84 543.46 468.925 542.935 471.265 542.935C474.295 542.935 476.785 543.67 478.735 545.14C480.715 546.61 482.02 548.65 482.65 551.26H478.24C477.82 549.76 476.995 548.575 475.765 547.705C474.565 546.835 473.065 546.4 471.265 546.4C468.925 546.4 467.035 547.21 465.595 548.83C464.155 550.42 463.435 552.685 463.435 555.625C463.435 558.595 464.155 560.89 465.595 562.51C467.035 564.13 468.925 564.94 471.265 564.94C473.065 564.94 474.565 564.52 475.765 563.68C476.965 562.84 477.79 561.64 478.24 560.08H482.65C481.99 562.6 480.67 564.625 478.69 566.155C476.71 567.655 474.235 568.405 471.265 568.405C468.925 568.405 466.84 567.88 465.01 566.83C463.21 565.78 461.8 564.295 460.78 562.375C459.76 560.455 459.25 558.205 459.25 555.625ZM490.229 539.335C489.449 539.335 488.789 539.065 488.249 538.525C487.709 537.985 487.439 537.325 487.439 536.545C487.439 535.765 487.709 535.105 488.249 534.565C488.789 534.025 489.449 533.755 490.229 533.755C490.979 533.755 491.609 534.025 492.119 534.565C492.659 535.105 492.929 535.765 492.929 536.545C492.929 537.325 492.659 537.985 492.119 538.525C491.609 539.065 490.979 539.335 490.229 539.335ZM492.209 543.34V568H488.114V543.34H492.209ZM503.284 534.7V568H499.189V534.7H503.284Z" fill="white"/>
<g filter="url(#filter0_d_103_3)">
<path d="M45.2789 368.992C44.4953 372.36 42.4929 380.614 40.8387 387.352C36.7468 404.281 35.1797 414.304 35.5279 422.726C35.7891 430.391 37.1821 439.824 38.5751 443.361C40.4905 448.246 39.2716 448.078 33.4385 442.687C30.1301 439.655 23.7746 434.518 19.3345 431.149L11.2377 425.084L10.5412 427.527C9.40944 431.401 10.5412 453.721 12.4566 463.659C15.3296 479.072 19.8568 485.81 41.5352 506.529C57.0322 521.352 64.4324 529.185 53.8109 519.499C46.4977 512.846 35.5279 506.445 19.4215 499.538C14.459 497.348 6.1011 494.316 5.31754 494.316C3.75043 494.316 8.27764 515.288 12.4566 527.164C16.7226 539.544 19.1604 543.756 26.4735 550.746C33.1773 557.231 39.1845 561.527 55.7263 571.802C68.9596 579.972 76.8822 585.446 76.8822 586.289C76.8822 586.625 74.3575 585.194 71.3103 583.088C64.9548 578.877 57.8157 575.845 45.1047 571.97C34.0479 568.686 9.84475 563.632 9.84475 564.559C9.84475 564.727 11.4119 568.938 13.4143 573.992C20.3792 592.016 28.6501 606.165 36.2244 612.819C43.1023 618.967 54.7686 625.453 68.3502 630.674C87.4167 638.002 101.26 644.15 101.26 645.245C101.26 645.582 98.9959 644.824 96.2099 643.392C91.1604 640.95 79.4941 638.002 70.7879 637.16C68.1761 636.823 64.2583 636.402 62.0818 636.149C53.8109 635.222 49.9802 634.97 38.8363 634.549C32.4808 634.38 27.2571 634.38 27.2571 634.633C27.2571 635.896 36.7468 650.551 42.4929 658.131C58.251 679.103 68.089 684.577 103.175 692.158C125.376 697.043 133.734 699.064 134.691 699.906C135.823 700.917 134.604 700.833 130.86 699.822C125.463 698.222 121.11 697.801 110.401 697.885C100.215 697.885 84.7178 698.643 80.3647 699.317C79.1459 699.569 76.2728 699.906 73.8351 700.159C67.3055 700.833 62.3429 701.591 59.8182 702.264C57.5546 702.854 57.6416 702.938 64.8677 710.771C83.4989 730.985 96.3841 739.576 113.448 743.113C125.724 745.64 129.467 746.061 146.532 746.566C164.989 747.156 177.613 748.166 178.483 749.009C178.657 749.177 174.565 749.261 169.429 749.345C163.073 749.345 156.631 750.019 149.579 751.451C129.38 755.494 103.001 762.99 103.001 764.674C103.001 765.432 121.371 776.971 129.032 781.098C137.564 785.73 149.405 790.278 156.108 791.542C160.81 792.384 190.933 792.215 197.027 791.289C201.903 790.531 208.084 790.025 219.663 789.436C230.981 788.846 233.854 789.352 224.016 790.278C212.873 791.289 196.679 796.595 176.133 806.196C164.466 811.587 162.551 812.766 164.118 813.608C170.909 817.146 198.159 825.315 210.348 827.421C218.619 828.853 232.897 828.853 242.299 827.421C248.394 826.494 255.097 825.147 261.888 823.631C268.331 822.199 271.378 821.778 284.089 820.767L288.877 820.346L283.131 821.525C271.291 823.883 256.578 830.2 245.956 837.443C243.692 838.959 240.036 841.486 237.685 843.002C235.422 844.602 233.854 846.118 234.203 846.455C234.638 846.792 236.64 847.298 238.817 847.634C240.993 847.887 246.653 848.814 251.441 849.74C269.637 853.109 273.555 853.53 286.701 853.53C300.195 853.53 313.69 850.582 341.376 841.655C347.035 839.802 347.644 840.223 342.856 842.665C338.154 845.024 327.272 852.772 324.573 855.636C323.006 857.32 323.006 857.32 325.095 857.404C326.227 857.489 328.142 857.657 329.361 857.826C330.58 857.994 337.545 858.162 344.858 858.331L358.179 858.584L351.823 861.531C342.943 865.743 338.503 868.269 328.752 874.418C314.735 883.261 297.148 897.411 297.148 899.853C297.148 901.959 304.026 906.086 311.339 908.275C322.222 911.644 323.702 911.055 333.54 900.106C344.684 887.556 354.609 878.966 366.362 871.807C371.934 868.438 387.78 861.194 392.742 859.763C396.399 858.752 396.486 858.584 396.05 856.141C394.744 849.993 394.483 843.592 395.441 839.97C396.399 836.348 396.312 835.927 394.657 834.832C393.7 834.159 388.737 830.284 383.688 826.157C378.638 821.946 372.718 817.398 370.541 815.882C366.101 812.934 340.679 800.638 340.157 801.143C339.199 801.985 342.333 811.334 345.642 817.651L349.298 824.726L345.38 821.02C340.505 816.472 332.495 806.702 324.573 795.416C321.264 790.784 315.257 783.288 311.165 778.74C307.073 774.191 302.894 769.391 301.937 768.043C300.979 766.78 297.322 762.653 293.927 758.863C287.659 752.125 287.572 752.041 286.962 754.399C286.091 757.347 286.091 783.035 286.962 789.099C287.92 795.584 289.922 801.985 292.099 805.691C293.143 807.46 293.492 808.47 292.969 808.049C288.877 804.344 279.301 781.35 274.425 763.411C271.9 754.062 270.159 750.019 262.846 736.038C258.058 727.026 253.356 718.014 252.312 716.077C251.354 714.14 250.309 712.54 250.048 712.456C249.438 712.456 246.478 719.362 243.605 727.616C240.21 737.133 238.033 746.145 237.424 752.546C237.163 755.746 236.815 759.368 236.727 760.547C236.553 761.811 236.727 764.59 237.076 766.696C237.859 771.749 236.815 771.665 235.596 766.527C233.506 758.105 232.81 750.693 232.287 730.985C231.939 715.066 230.981 708.581 227.847 698.727C225.061 690.305 218.096 672.702 217.139 671.776C216.181 670.849 207.039 684.662 201.555 695.19C194.067 709.76 189.801 724.921 190.585 733.933C190.846 736.375 190.672 736.965 190.062 736.038C188.669 734.101 189.192 716.246 190.933 706.055C191.804 701.001 192.761 695.527 193.023 693.926C193.284 692.326 193.893 688.957 194.328 686.515C196.157 677.334 196.418 666.891 194.938 659.395C193.632 652.573 187.625 633.285 185.883 630.337C185.274 629.158 184.229 629.832 179.702 634.717C162.812 652.488 150.362 674.134 149.753 686.767C149.666 688.873 149.23 690.557 148.882 690.557C146.706 690.557 150.623 671.607 156.457 653.331C163.857 630.001 164.205 628.316 163.683 617.451C163.422 611.977 162.986 606.671 162.725 605.492C159.765 592.353 157.501 583.846 156.979 583.256C156.544 582.835 151.755 586.71 146.009 592.1C127.726 609.45 118.411 622.842 115.625 636.149C115.364 637.412 114.841 638.339 114.58 638.086C113.187 636.654 118.237 621.662 127.291 600.607C137.129 577.782 138.087 573.739 136.607 559.59C135.823 552.431 132.602 534.744 131.731 533.228C130.512 530.954 110.836 547.461 102.043 558.158C95.6005 565.906 92.9016 570.37 90.2897 577.529C89.1579 580.646 88.2003 582.33 88.2003 581.319C88.2003 578.119 92.5533 567.591 100.041 552.683C112.403 528.09 114.493 521.689 113.883 510.571C113.622 506.697 113.274 502.486 113.1 501.223C112.665 498.612 111.446 490.105 111.272 488.842C111.097 487.157 109.792 480.419 109.443 478.903C109.008 477.64 108.486 477.808 105.003 480.167C97.0806 485.641 86.8073 494.99 81.2353 501.728C75.9246 508.297 70.875 517.394 70.7879 520.594C70.7879 521.436 70.4397 522.11 70.0044 522.11C68.1761 522.11 73.0515 510.319 81.7577 493.474C85.1531 486.736 89.245 477.64 90.8121 473.26C93.511 465.428 93.5981 465.006 93.0757 454.31C92.8145 448.246 92.3792 442.435 92.118 441.255C91.8569 440.076 91.4215 437.802 91.1604 436.202C90.3768 431.149 88.0261 420.621 87.765 420.284C86.7202 419.273 74.6186 431.401 67.5666 440.497L63.3006 446.14L63.4747 435.444C63.7359 421.716 62.3429 414.051 56.4227 394.511C53.7238 385.668 50.5896 375.224 49.5449 371.097C48.4131 367.054 47.3683 363.601 47.1072 363.349C46.846 363.096 46.0624 365.623 45.2789 368.992ZM52.0697 422.726C53.3756 430.222 53.898 436.286 54.6815 451.783C54.9427 456.837 55.2909 465.175 55.5521 470.228C55.8133 475.366 55.8133 479.324 55.6392 479.072C55.2039 478.735 51.6344 463.49 50.5026 457.258C50.2414 456.079 49.8061 453.636 49.4578 451.783C48.326 445.888 48.239 445.382 47.5425 440.497C46.6718 434.012 46.6718 411.946 47.6295 408.829C48.4131 406.387 48.4131 406.387 49.6319 410.935C50.2414 413.462 51.2861 418.768 52.0697 422.726ZM79.0588 449.846C78.7105 452.289 77.4917 457.679 76.3599 461.89C75.141 466.017 74.0963 470.144 73.8351 471.071C73.661 471.913 72.8774 474.608 72.1809 476.966C71.0491 481.093 69.7432 487.494 68.5243 494.737C68.2631 496.59 67.8278 498.696 67.7408 499.37C67.5666 500.044 67.3925 500.97 67.3055 501.475C67.2184 501.896 66.8702 501.56 66.5219 500.633C65.4772 498.191 66.2607 482.525 67.7408 473.682C67.9149 472.755 68.3502 470.313 68.6114 468.207C69.3949 462.901 71.1362 457.342 73.3998 452.962C78.1011 444.119 80.0165 443.108 79.0588 449.846ZM32.2196 458.774C36.3115 464.08 42.667 476.208 47.6295 488.421C49.4578 492.8 51.4602 497.685 52.1567 499.201C53.5497 502.318 53.8109 505.181 52.592 503.918C52.1567 503.497 50.5896 500.886 49.0225 498.106C44.06 489.347 35.7891 475.534 33.3514 471.997C31.0878 468.628 23.7746 452.878 23.7746 451.278C23.7746 449.762 28.3889 453.889 32.2196 458.774ZM96.4711 506.697C96.1229 508.045 95.1652 512.256 94.2946 516.214C93.424 520.173 91.8569 525.563 90.8992 528.174C88.1132 535.923 84.2825 555.715 84.5437 560.6C84.6307 561.695 84.3696 562.537 83.9342 562.537C82.4542 562.537 82.1059 558.579 82.5413 546.114C83.0636 528.68 83.8472 524.216 87.765 515.878C91.5957 507.624 98.0382 500.886 96.4711 506.697ZM39.1845 525.311C42.4058 527.922 47.0201 533.143 51.5473 539.46C59.4699 550.493 68.5243 565.401 68.002 566.749C67.9149 567.17 63.6489 562.79 58.5993 556.894C53.5497 550.999 46.4107 542.998 42.667 539.123C36.0503 532.217 27.2571 520.594 27.2571 518.741C27.2571 517.309 33.6126 520.847 39.1845 525.311ZM117.54 562.706C117.279 563.801 116.408 568.012 115.625 572.223C114.841 576.35 113.274 582.835 112.142 586.541C109.617 595.048 108.486 602.965 107.876 616.609C107.702 621.494 106.744 622.673 106.135 618.883C105.874 617.283 105.264 613.914 104.829 611.387C102.914 600.354 104.394 582.414 107.876 573.992C111.359 565.654 119.02 556.81 117.54 562.706ZM46.2365 586.794C55.8133 590.584 63.823 596.311 73.3127 606.165C82.9766 616.188 92.118 627.221 91.4215 627.979C91.1604 628.232 86.1108 624.442 80.1906 619.641C74.2704 614.756 65.5642 607.934 60.7758 604.481C49.6319 596.395 37.1821 584.436 39.794 584.436C39.9681 584.436 42.8411 585.531 46.2365 586.794ZM143.659 614.503C143.397 614.925 142.962 617.788 142.701 621.073C142.091 627.474 141.743 629.832 140.35 636.233C138.348 645.666 137.651 665.29 139.131 672.618C139.741 675.987 138.435 676.324 137.129 673.039C132.079 660.742 130.773 638.507 134.43 628.063C136.607 621.662 141.308 613.914 142.875 613.914C143.484 613.914 143.833 614.167 143.659 614.503ZM72.9645 651.899C81.4095 653.836 89.3321 657.794 99.7795 665.038C110.227 672.449 124.331 684.493 123.46 685.336C123.286 685.588 120.065 683.988 116.495 681.882C112.839 679.693 109.704 677.924 109.53 677.924C109.269 677.924 106.57 676.408 103.349 674.555C100.215 672.618 93.0757 668.912 87.4167 666.217C77.2305 661.332 63.823 652.994 63.2136 651.225C62.8653 650.214 66.4348 650.467 72.9645 651.899ZM174.914 663.437C174.304 665.29 174.13 702.686 174.74 706.139C175.697 712.034 177.787 721.383 178.309 722.731C178.657 723.657 178.57 724.247 177.961 724.247C177.438 724.247 175.871 721.804 174.478 718.857C167.775 704.538 164.815 688.536 166.991 678.429C168.123 673.207 171.257 665.122 172.911 662.932C174.13 661.416 175.436 661.669 174.914 663.437ZM211.044 709.255C211.218 712.54 211.393 714.056 212.176 719.615C212.873 724.163 213.221 726.521 214.004 733.09C215.223 742.608 218.009 751.451 222.885 760.8C228.457 771.665 223.32 767.622 215.92 755.41C206.604 739.997 203.818 726.858 207.039 713.382C207.823 710.434 208.607 707.739 208.868 707.318C209.825 705.718 210.957 706.728 211.044 709.255ZM114.667 712.877C124.592 714.477 124.07 714.308 137.825 720.709C150.362 726.521 164.815 734.859 164.815 736.207C164.815 737.217 164.727 737.217 150.449 731.911C144.268 729.637 134.256 726.352 128.249 724.668C111.794 720.12 95.7746 713.635 97.8641 712.456C98.9089 711.782 109.704 712.034 114.667 712.877ZM255.794 760.631C257.971 766.106 259.712 770.907 259.712 771.412C259.712 772.591 264.935 782.698 267.809 787.078C268.94 788.931 271.9 792.805 274.425 795.753C276.863 798.701 278.691 801.311 278.43 801.564C278.256 801.733 276.515 800.722 274.599 799.29C266.241 792.889 255.968 779.666 252.05 770.233C249.787 764.927 248.394 752.041 249.7 748.924C250.396 747.156 249.961 746.145 255.794 760.631ZM179.354 766.443C182.923 767.369 186.493 768.296 187.276 768.464C191.02 769.222 212.176 776.718 214.44 778.15C217.226 779.834 214.091 779.919 207.301 778.234C197.463 775.876 183.533 773.602 172.215 772.675C167.775 772.254 164.902 771.833 156.544 770.233C142.614 767.454 142.179 766.359 154.628 764.674C161.68 763.748 172.215 764.506 179.354 766.443ZM238.556 773.939C239.078 775.286 239.252 776.465 238.817 776.465C238.469 776.465 237.685 775.286 237.163 773.939C236.727 772.507 236.553 771.412 236.902 771.412C237.25 771.412 238.033 772.507 238.556 773.939ZM306.812 795.837C316.041 807.881 322.57 814.282 332.321 820.767C340.244 825.989 339.286 826.747 330.493 822.283C310.643 812.092 299.673 800.217 297.497 786.741C296.887 782.866 296.713 782.698 306.812 795.837ZM237.076 804.765C250.919 806.618 264.065 809.397 270.42 811.755C273.642 812.934 273.38 813.692 269.985 813.187C268.418 812.934 264.761 812.597 261.888 812.261C259.015 812.008 254.488 811.587 251.876 811.334C249.264 811.081 238.643 810.745 228.37 810.576C211.654 810.239 205.124 809.818 204.166 808.892C203.47 808.218 212.437 805.691 218.967 804.68C225.758 803.67 229.675 803.67 237.076 804.765ZM366.449 823.547C372.718 827.673 380.292 832.306 383.252 833.738C388.998 836.601 390.304 838.37 385.777 836.938C375.243 833.569 364.012 828.6 360.094 825.568C356.089 822.452 352.258 816.051 354.348 816.051C354.696 816.051 360.094 819.42 366.449 823.547ZM322.831 833.485C326.227 833.738 329.535 834.074 330.232 834.243C330.928 834.327 332.408 834.496 333.54 834.496C334.585 834.58 335.455 834.917 335.455 835.254C335.455 835.675 333.018 836.012 330.058 836.012C323.006 835.927 301.327 837.107 300.631 837.528C299.064 838.454 273.729 839.549 271.378 838.791C269.811 838.201 269.811 838.201 271.552 837.275C273.467 836.264 285.221 833.232 289.748 832.558C292.621 832.137 313.168 832.727 322.831 833.485ZM387.692 843.929C387.692 844.35 386.648 844.771 385.342 844.771C380.118 845.024 369.671 846.708 362.445 848.477C359.833 849.15 354.696 849.909 351.127 850.245C345.293 850.751 344.771 850.667 345.729 849.487C347.383 847.634 352.607 845.36 358.091 844.181C363.838 843.002 387.692 842.749 387.692 843.929Z" fill="url(#paint2_linear_103_3)"/>
<path d="M793.313 363.938C793.226 366.212 792.355 369.16 785.825 390.3C778.338 414.557 777.467 419.105 777.467 433.507C777.467 440.161 777.206 445.298 776.858 444.877C776.597 444.54 773.724 441.003 770.59 437.044C763.102 427.611 751.784 417.42 752.655 420.789C752.742 421.21 752.307 423.569 751.784 426.095C750.565 431.57 750.043 434.518 749.346 439.571C749.085 441.677 748.65 444.119 748.476 445.046C748.302 445.972 747.954 450.604 747.692 455.321C747.17 466.859 749.259 473.682 759.794 494.569C767.629 510.066 772.418 521.605 771.373 522.616C771.112 522.868 770.677 521.773 770.328 520.257C767.891 509.645 755.528 494.738 738.725 482.272C733.153 478.061 731.673 477.556 731.499 479.577C731.412 480.251 731.325 481.093 731.238 481.43C731.064 482.02 730.106 487.157 729.322 491.369C727.842 499.622 727.32 506.276 727.581 514.53C727.842 526.069 728.365 527.501 739.596 549.82C747.605 565.654 752.829 578.54 752.22 580.983C752.045 581.741 751.61 580.898 751.175 579.13C750.217 574.413 746.299 567.086 741.772 561.274C734.894 552.431 710.778 531.038 709.298 532.385C708.166 533.565 704.51 556.389 704.161 564.643C703.726 575.508 704.945 580.814 711.301 595.385C713.39 600.27 716.437 607.26 718.091 610.966C722.444 620.82 725.579 630.59 725.927 635.391C726.188 637.665 726.101 638.844 725.84 637.918C725.666 636.991 724.969 634.549 724.447 632.443C722.183 623.6 713.477 610.545 701.724 598.333C695.368 591.679 684.747 582.33 684.137 582.92C683.528 583.425 680.481 595.722 678.914 603.47C675.605 620.062 676.128 626.716 682.135 645.329C687.446 662.006 690.58 673.46 691.625 680.03C692.147 683.23 692.669 686.683 692.843 687.694C693.018 688.62 692.756 689.968 692.321 690.642C691.799 691.484 691.538 690.726 691.538 688.452C691.538 679.608 685.617 666.554 674.909 651.393C668.814 642.718 657.148 629.074 655.842 629.074C655.146 629.074 649.313 646.087 646.614 656.026C644.524 663.606 644.611 675.313 646.701 686.346C651.054 709.424 652.795 726.1 651.576 733.512C651.054 736.965 650.88 736.544 650.444 729.721C649.4 714.645 639.562 691.652 627.286 675.06L624.239 671.018L622.933 673.292C621.192 676.661 612.486 699.822 611.006 705.297C609.613 710.687 609.09 716.667 608.307 738.986C607.697 757.684 605.521 771.749 602.648 775.623C601.951 776.634 601.864 776.466 602.299 774.865C606.391 760.968 602.648 737.133 593.158 716.414C590.807 711.361 591.852 710.182 580.273 731.827C570.609 749.935 569.129 753.388 565.733 766.359C561.729 781.435 551.194 806.112 547.886 808.049C547.45 808.302 548.06 806.87 549.192 804.933C551.368 801.312 553.022 796.511 553.545 792.468C555.721 776.634 555.721 755.073 553.545 753.051C553.022 752.546 545.97 759.958 539.441 767.706C537.177 770.486 532.389 775.96 528.732 779.919C525.163 783.877 520.287 789.941 517.85 793.395C515.499 796.848 511.494 802.322 509.056 805.607C500.785 816.556 489.032 828.347 493.646 821.02C497.216 815.545 502.353 800.89 500.785 800.89C500.437 800.89 493.472 804.091 485.463 808.049C472.49 814.366 469.443 816.303 458.822 824.894C452.205 830.2 446.285 834.833 445.588 835.169C444.631 835.759 444.631 836.517 445.675 840.476C446.981 845.192 446.72 852.856 445.066 855.72C443.76 858.163 444.108 858.836 446.981 859.426C448.461 859.763 452.902 861.447 456.819 863.132C477.801 872.228 492.079 882.503 506.967 899.432C515.76 909.37 517.414 910.465 522.638 909.876C532.128 908.949 545.1 902.211 543.794 898.927C543.533 898.253 539.528 894.631 534.914 890.925C519.678 878.545 502.527 867.511 488.597 861.195L482.415 858.415L494.517 858.247C506.88 858.163 516.457 857.657 517.153 857.068C517.762 856.478 508.882 849.151 503.484 845.782C500.698 844.013 497.651 842.16 496.781 841.57C495.039 840.476 500.089 841.823 518.285 847.213C524.727 849.151 532.041 851.088 534.391 851.509C536.829 851.93 540.137 852.604 541.791 852.941C549.366 854.457 571.131 853.362 582.71 851.003C588.631 849.74 596.031 848.477 602.735 847.635C604.911 847.298 606.914 846.792 607.262 846.54C607.958 845.866 589.153 833.485 581.405 829.526C575.658 826.579 562.164 821.946 559.378 821.946C558.333 821.946 557.288 821.525 556.94 821.02C556.592 820.43 556.94 820.262 557.985 820.515C558.943 820.767 561.99 821.188 564.863 821.525C567.736 821.778 576.964 823.378 585.322 825.063C598.904 827.758 602.038 828.095 614.488 828.179C625.806 828.263 629.985 827.926 636.689 826.41C650.009 823.462 677.608 814.282 677.608 812.766C677.608 810.997 637.559 794.237 629.985 792.805C628.94 792.637 627.025 792.131 625.893 791.626C624.674 791.205 620.843 790.615 617.361 790.278C613.879 790.026 610.831 789.52 610.57 789.352C610.048 788.846 634.773 789.689 635.644 790.278C637.124 791.12 654.101 792.047 668.466 792.047C683.441 792.047 684.486 791.963 691.973 789.604C702.159 786.32 717.917 778.403 729.496 770.654C736.113 766.275 738.464 764.253 737.593 763.832C734.459 762.148 705.729 754.315 693.888 751.956C683.963 750.019 678.391 749.346 671.513 749.346C665.767 749.346 663.068 749.009 664.287 748.588C666.29 747.914 675.779 747.24 694.149 746.566C705.729 746.145 715.48 745.471 718.701 744.797C719.833 744.629 722.444 744.208 724.621 743.955C731.499 743.113 742.643 738.902 749.172 734.691C755.267 730.816 782.952 705.044 782.952 703.359C782.952 702.517 777.816 701.507 765.714 699.822C747.692 697.38 721.4 697.127 712.606 699.317C706.251 700.833 704.771 701.001 705.99 699.906C706.773 699.148 722.27 695.442 738.116 692.158C764.147 686.852 776.945 681.461 787.044 671.439C795.315 663.269 813.424 638.339 813.424 635.138C813.424 634.212 798.449 634.296 787.305 635.307C784.694 635.559 780.166 635.981 777.293 636.233C774.42 636.486 771.112 636.907 769.893 637.075C768.674 637.328 766.585 637.665 765.105 637.918C762.406 638.339 756.311 639.518 752.568 640.36C751.436 640.613 748.041 641.96 744.906 643.308C741.859 644.74 739.596 645.498 739.857 644.992C740.727 643.729 747.692 640.529 762.58 634.717C790.527 623.768 802.715 616.693 810.029 607.429C814.817 601.28 822.217 587.468 826.918 576.013C831.097 565.738 831.533 564.054 829.792 564.643C829.182 564.812 827.093 565.148 825.177 565.401C806.894 567.675 780.602 575.929 770.851 582.499C767.804 584.52 765.192 586.036 764.931 585.867C764.408 585.278 772.418 579.888 790.701 568.265C816.471 551.925 823.088 544.514 829.617 524.805C833.187 513.941 837.105 494.316 835.712 494.316C833.97 494.316 815.949 501.897 808.2 505.855C797.056 511.582 789.308 516.804 785.303 521.268C783.736 523.121 781.995 524.637 781.559 524.637C781.211 524.637 788.698 516.973 798.275 507.54C821.521 484.883 825.177 479.661 828.398 465.259C830.14 457.258 831.533 426.601 830.14 425.758C829.269 425.253 817.342 434.096 808.2 442.098C804.369 445.467 801.235 447.993 801.235 447.825C801.235 447.657 801.671 446.225 802.106 444.624C804.457 437.213 805.501 428.538 805.24 418.936C805.066 413.378 804.718 408.071 804.457 407.145C804.282 406.219 803.76 403.776 803.412 401.67C802.889 397.965 802.454 396.196 798.71 381.457C797.666 377.498 796.621 373.119 796.36 371.771C795.228 365.37 793.487 360.99 793.313 363.938ZM793.922 414.809C794.183 418.936 794.532 422.642 794.619 423.147C796.186 428.117 787.741 476.629 785.39 476.629C784.955 476.629 784.781 475.956 785.042 475.113C785.303 474.355 785.738 468.965 785.999 463.154C787.48 431.654 787.828 427.359 789.482 419.779C789.656 419.273 790.178 416.662 790.701 413.883C792.703 404.197 793.226 404.366 793.922 414.809ZM764.669 447.993C769.022 453.973 771.634 462.059 773.811 476.629C774.681 482.525 775.117 502.233 774.333 501.475C773.985 500.97 772.94 497.012 772.157 492.632C770.415 483.03 767.804 472.334 765.453 464.838C763.363 458.184 761.187 445.467 762.145 445.467C762.493 445.467 763.625 446.562 764.669 447.993ZM816.384 453.215C814.817 458.269 812.292 463.996 809.68 468.376C808.2 470.986 802.889 479.914 798.014 488.168C793.051 496.422 788.96 503.497 788.785 504.002C788.524 504.423 788.176 504.592 787.828 504.339C786.348 502.991 800.8 469.976 806.546 461.722C809.68 457.174 815.165 451.362 816.297 451.362C816.645 451.362 816.732 452.205 816.384 453.215ZM747.431 506.697C755.18 514.699 759.272 531.038 758.836 551.925C758.575 562.285 757.356 565.233 756.486 557.737C755.093 546.114 753.351 537.86 750.304 528.848C747.692 521.268 743.775 504.423 744.645 504.423C744.906 504.423 746.212 505.434 747.431 506.697ZM814.295 518.404C814.295 520.005 805.153 531.712 797.579 539.966C792.703 545.188 785.216 553.61 780.95 558.579C776.684 563.548 772.94 567.507 772.766 567.254C771.286 565.906 790.091 537.355 797.666 529.522C803.499 523.289 814.295 516.13 814.295 518.404ZM731.586 570.791C733.066 573.655 734.807 578.372 735.417 581.235C736.81 587.636 737.071 608.439 735.852 614.335C733.937 623.347 733.327 622.757 732.805 611.64C732.457 602.712 730.454 590.416 728.365 584.436C726.623 579.298 722.88 561.527 723.402 560.685C724.099 559.59 728.626 565.233 731.586 570.791ZM794.532 592.942C790.091 596.985 784.694 601.533 782.343 603.049C777.554 606.25 762.058 618.294 755.267 624.273C746.386 632.022 749.434 626.126 760.839 613.577C771.286 602.038 781.124 593.532 787.915 590.079C795.315 586.289 800.452 584.436 801.583 585.109C802.019 585.362 798.885 588.9 794.532 592.942ZM701.376 617.03C704.249 621.326 706.164 625.453 707.644 630.843C709.298 636.823 708.863 655.015 706.773 663.522C705.293 669.502 703.204 675.397 702.507 675.397C702.333 675.397 702.246 669.249 702.42 661.669C702.594 651.309 702.246 645.919 701.114 639.181C698.067 622.505 697.11 613.914 698.241 613.914C698.764 613.914 700.157 615.346 701.376 617.03ZM778.077 651.057C778.947 651.899 764.234 660.995 752.481 666.806C745.516 670.26 734.981 675.903 729.148 679.356C723.228 682.809 718.091 685.42 717.83 685.083C716.089 683.398 745.429 660.995 755.528 656.363C764.321 652.32 776.423 649.456 778.077 651.057ZM669.685 665.711C675.17 676.913 675.954 687.694 672.471 701.928C669.598 713.551 664.461 725.679 662.807 724.668C662.459 724.415 663.155 720.794 664.374 716.498C666.551 708.918 666.638 707.908 666.464 685.251C666.377 672.449 666.725 661.921 667.073 661.921C667.509 661.921 668.64 663.606 669.685 665.711ZM633.119 710.097C637.211 724.836 635.731 735.617 627.46 751.704C624.239 757.936 616.926 767.706 616.055 766.864C615.794 766.696 616.229 765.18 617.1 763.664C620.321 757.347 624.848 745.219 625.893 739.913C626.067 738.902 626.415 737.217 626.677 736.038C626.938 734.859 627.286 731.827 627.547 729.3C627.808 726.774 628.157 723.742 628.418 722.562C628.592 721.383 629.027 718.52 629.288 716.246C629.55 713.887 629.985 711.276 630.159 710.35C630.333 709.424 630.507 708.16 630.507 707.571C630.681 705.297 632.161 706.728 633.119 710.097ZM743.339 712.624C744.558 713.803 727.233 720.878 716.785 723.489C709.211 725.426 698.241 728.963 685.617 733.68C680.655 735.533 676.389 736.796 676.128 736.544C675.431 735.954 675.083 736.207 681.525 732.08C691.189 725.847 709.821 717.088 718.962 714.561C727.146 712.203 741.772 711.108 743.339 712.624ZM591.678 749.935C592.287 753.473 591.591 761.979 590.198 766.611C587.325 776.044 578.357 788.931 568.955 797.016C562.947 802.238 560.423 803.249 563.992 798.953C573.743 787.415 578.183 780.087 582.275 768.464C583.581 764.758 585.584 759.789 586.628 757.431C587.76 754.989 588.892 751.872 589.24 750.44C589.937 747.24 591.068 747.072 591.678 749.935ZM688.665 765.011C692.931 765.601 695.891 766.527 695.891 767.285C695.891 767.706 695.717 768.043 695.455 768.043C695.194 768.043 690.145 768.97 684.311 770.065C678.478 771.244 671.339 772.423 668.466 772.676C659.586 773.518 655.668 774.023 647.136 775.623C642.609 776.466 637.908 777.392 636.689 777.56C635.47 777.813 632.597 778.487 630.333 778.992C628.07 779.582 625.98 779.835 625.719 779.582C623.891 777.813 655.929 766.864 668.989 764.758C673.255 764.169 682.309 764.253 688.665 765.011ZM543.097 788.931C541.095 796.258 538.048 801.227 531.866 807.291C528.471 810.576 522.986 815.04 519.591 817.061C506.88 825.063 496.694 828.516 508.36 820.936C517.588 814.956 524.814 808.134 532.65 797.943C536.568 792.889 540.486 787.667 541.269 786.404C543.533 783.035 544.403 784.214 543.097 788.931ZM625.371 805.27C631.291 806.281 637.211 808.302 636.428 808.976C635.557 809.818 630.943 810.155 613.182 810.576C593.506 810.997 585.061 811.503 571.392 813.187C565.211 813.861 570.174 811.081 577.4 809.734C578.532 809.565 580.099 809.144 580.969 808.892C584.103 807.965 602.038 804.849 609.264 804.007C612.747 803.67 618.493 804.091 625.371 805.27ZM487.813 816.472C487.813 816.809 487.291 817.988 486.594 819.335C484.592 823.041 479.194 827.252 472.142 830.537C464.655 834.075 452.118 838.117 452.118 837.022C452.118 836.601 454.382 835.169 457.168 833.906C459.866 832.643 465.09 829.695 468.573 827.337C484.853 816.893 487.813 815.208 487.813 816.472ZM555.112 820.851C554.502 821.02 553.458 821.02 552.935 820.851C552.326 820.599 552.761 820.43 553.98 820.43C555.199 820.43 555.634 820.599 555.112 820.851ZM560.51 834.496C573.917 838.202 574.701 839.718 562.86 839.212C551.455 838.707 539.702 837.865 539.18 837.528C538.744 837.275 532.041 836.854 512.365 835.843C505.661 835.506 502.701 834.664 507.924 834.496C509.579 834.496 511.668 834.327 512.626 834.075C513.584 833.906 518.72 833.485 523.944 833.232C529.255 832.895 533.695 832.559 533.869 832.39C535.001 831.379 555.112 832.98 560.51 834.496ZM481.893 843.929C486.769 844.687 495.649 848.477 495.649 849.909C495.649 851.172 485.027 850.077 474.145 847.719C469.008 846.624 462.13 845.445 458.822 845.108C455.6 844.771 453.163 844.181 453.424 843.844C454.033 842.918 475.712 843.002 481.893 843.929Z" fill="url(#paint3_linear_103_3)"/>
<path d="M416.597 830.368C403.973 833.232 398.923 848.897 407.629 858.499C411.808 863.131 422.517 864.984 428.263 862.12C439.668 856.393 441.061 840.812 430.962 833.4C427.131 830.621 421.211 829.357 416.597 830.368Z" fill="url(#paint4_linear_103_3)"/>
</g>
<g filter="url(#filter1_d_103_3)">
<path d="M354.254 376.253H347.517L348.58 370.28C349.431 366.098 356.027 364.306 359.218 363.933C354.609 366.546 354.254 375.88 354.254 376.253Z" fill="black"/>
<path d="M335.815 328.464C334.964 320.399 332.151 316.143 330.85 315.023C332.836 329.061 331.678 341.282 330.85 345.638C330.85 349.82 324.94 358.083 321.985 361.692H327.304C332.978 354.823 335.106 346.883 335.46 343.771C336.028 337.499 335.933 330.953 335.815 328.464Z" fill="black"/>
<path d="M306.383 377H300C300.567 365.351 307.565 364.43 310.993 365.426C308.44 365.725 306.856 373.266 306.383 377Z" fill="black"/>
<path d="M313.83 216.457C316.43 210.359 324.255 200.552 334.751 210.11C338.297 212.848 343.261 221.311 334.751 233.258C327.777 238.983 313.971 251.179 314.539 254.166C313.357 257.153 311.206 263.873 312.057 266.86C313.239 262.629 316.241 254.689 318.794 256.78C315.603 263.749 310.284 280.674 314.539 292.622C315.248 293.991 316.737 296.878 317.021 297.475C317.376 298.222 316.312 283.288 317.376 284.408C318.439 285.528 319.503 285.155 321.276 293.742C321.867 294.986 323.404 297.923 324.822 299.715C326.595 301.956 330.85 307.556 331.205 308.303C331.56 309.049 337.588 314.276 338.652 328.464C339.243 335.309 339.574 349.894 336.17 353.479C334.397 356.839 330.354 364.007 328.368 365.799H315.957C313.83 366.795 309.716 370.354 310.284 376.627H341.489C344.68 366.919 351.701 347.804 354.254 348.998L355.318 316.89C356.382 311.538 359.077 301.134 361.346 302.329L360.282 308.676L359.928 317.263C360.519 320.126 362.552 325.776 365.956 325.477L366.665 316.89C368.084 310.418 373.119 297.475 381.913 297.475H392.906C395.506 297.849 402.196 299.417 408.154 302.702C415.6 306.809 419.501 309.049 430.139 320.25C430.375 321.121 429.075 321.445 421.983 315.77C419.737 313.903 413.827 309.647 408.154 307.556C404.962 305.689 397.445 302.03 392.906 302.329C391.251 302.08 386.736 301.806 381.913 302.702C378.131 303.076 370.637 309.124 370.92 330.331L396.097 366.173C388.887 365.177 373.261 363.485 368.438 364.679C365.956 364.928 360.637 366.471 359.219 370.653V376.627H425.174C419.028 373.142 406.877 364.157 407.444 356.092C410.281 360.946 418.153 370.802 426.947 371.4H432.976C436.403 371.026 443.826 368.786 446.096 362.813C448.578 366.048 455.954 372.296 465.599 371.4C477.655 370.28 486.52 364.679 487.939 346.758C488.293 342.402 486.378 331.003 475.882 320.25C473.518 317.512 467.159 310.692 460.634 305.316C457.916 303.325 451.982 297.923 449.996 292.248C449.287 290.257 448.294 284.931 449.996 279.554C451.415 276.692 456.025 271.714 463.117 274.701C466.426 276.319 473.329 284.184 474.464 302.702C474.818 306.934 477.159 316.367 483.683 320.25C486.402 320.001 492.549 318.309 495.385 313.53C501.177 316.019 513.612 316.442 517.016 298.222C515.834 299.716 513.47 302.478 513.47 301.582C513.47 300.462 519.853 290.382 520.562 279.554C518.671 283.288 511.981 291.278 500.35 293.368C499.404 293.368 498.86 292.323 504.25 288.141C501.177 288.39 494.392 290.158 491.839 295.235C489.948 297.724 487.3 304.196 491.839 310.169C491.603 311.414 489.924 313.978 485.102 314.276C483.211 314.774 479.499 312.634 479.783 300.089C479.31 295.609 477.726 285.379 475.173 280.301C473.991 277.688 470.634 272.013 466.663 270.22C465.362 268.976 461.06 266.636 454.252 267.234C450.115 267.482 441.841 272.013 441.841 288.141C442.904 292.622 447.372 303.3 456.734 310.169C466.19 317.885 484.18 337.2 480.492 352.732C477.064 359.452 467.372 368.861 456.025 352.732C455.315 332.82 444.252 288.216 405.671 269.1C411.818 269.972 425.458 271.34 430.848 269.847C422.456 265.242 405.955 255.66 407.09 254.166C418.201 260.887 443.897 271.938 457.798 262.38C448.342 258.646 426.522 246.998 414.891 230.271C430.73 245.455 468.223 270.594 491.485 249.686C474.937 245.703 438.862 234.677 426.947 222.431C456.852 237.241 519.64 257.75 531.555 221.311C510.515 222.182 459.216 220.415 422.338 206.377C466.663 216.706 557.511 227.434 566.306 187.709C537.228 192.314 469.429 199.806 430.848 192.936C464.062 193.185 537.654 190.994 566.306 180.242C573.043 178.997 587.014 171.207 589 150C562.878 157.467 508.718 172.177 501.059 171.281C503.187 167.921 507.016 160.155 505.314 155.974C500.941 159.334 483.471 167.1 448.578 171.281C431.557 173.024 397.657 179.495 398.225 191.442C398.697 201.274 398.296 222.804 392.906 230.271C390.66 235.996 384.892 247.819 379.785 249.313C382.149 244.583 386.31 232.064 384.041 219.817C383.568 212.599 382.268 198.312 380.849 198.91C379.431 199.507 380.022 198.91 380.495 198.536C383.686 199.905 390.565 202.494 392.551 201.896C387.865 194.966 378.252 182.093 375.279 182.93C379.377 180.118 386.226 171.906 384.041 158.961C382.74 163.192 377.09 171.58 364.892 171.281C352.694 170.983 338.297 171.157 332.623 171.281C329.787 171.779 324.184 174.641 324.468 182.109C319.385 182.855 309.149 186.066 308.865 192.936C308.511 201.523 309.574 210.857 313.83 216.457Z" fill="black"/>
</g>
<ellipse cx="3.5679" cy="3.60317" rx="3.5679" ry="3.60317" transform="matrix(-1 0 0 1 339.247 178.826)" fill="#F3A41F"/>
<path d="M170.005 84.3926C171.782 83.9837 173.159 83.6487 174.133 83.3875C175.108 83.1263 176.467 82.7284 178.211 82.1937C178.276 82.311 178.315 82.3933 178.328 82.4405C178.351 82.5269 178.362 82.6294 178.36 82.7479C178.007 82.8762 177.721 82.9906 177.504 83.091C177.292 83.1814 177.032 83.3101 176.723 83.4772C176.421 83.6422 176.204 83.8225 176.071 84.0182C175.936 84.206 175.892 84.4032 175.939 84.6096C176.553 87.3097 177.169 89.8113 177.786 92.1145C178.237 93.7967 178.867 95.9743 179.675 98.6474C179.738 98.8496 179.876 99.0023 180.089 99.1053C180.3 99.2004 180.577 99.2441 180.92 99.2364C181.271 99.2265 181.562 99.2118 181.793 99.1921C182.029 99.1625 182.332 99.1149 182.702 99.0495C182.759 99.1354 182.803 99.2373 182.835 99.3552C182.852 99.4181 182.857 99.5009 182.851 99.6037C181.502 99.9146 180.128 100.257 178.729 100.632C177.314 101.012 175.952 101.402 174.644 101.803C174.588 101.717 174.551 101.642 174.534 101.579C174.498 101.446 174.485 101.335 174.496 101.248C174.725 101.162 174.909 101.091 175.046 101.038C175.183 100.984 175.369 100.905 175.602 100.8C175.843 100.694 176.032 100.597 176.168 100.51C176.311 100.412 176.454 100.302 176.598 100.18C176.742 100.057 176.839 99.9298 176.888 99.7987C176.945 99.6655 176.954 99.5282 176.916 99.3867C176.351 96.901 175.734 94.4083 175.064 91.9086C174.382 89.3617 173.754 87.1752 173.18 85.3489C173.118 85.1467 172.981 84.998 172.77 84.9028C172.557 84.7998 172.275 84.7532 171.924 84.7631C171.58 84.7708 171.291 84.7895 171.054 84.8192C170.823 84.8388 170.523 84.8814 170.153 84.9468C170.084 84.8138 170.042 84.7197 170.027 84.6647C170.006 84.5861 169.998 84.4954 170.005 84.3926ZM180.027 81.7071C181.333 81.4246 182.969 81.02 184.934 80.4935C192.358 85.9689 196.339 88.8788 196.878 89.2231C197.414 89.5595 197.683 89.7278 197.683 89.7278L197.777 89.7025C197.404 88.1848 197.094 86.9661 196.848 86.0464C196.361 84.2306 195.75 82.1069 195.014 79.6754C194.809 78.9722 193.821 78.7736 192.049 79.0798C191.971 78.9153 191.927 78.8134 191.917 78.7741C191.9 78.7112 191.895 78.6284 191.901 78.5256C193.179 78.2337 194.305 77.9571 195.28 77.6959C195.909 77.5274 196.956 77.2216 198.421 76.7785C198.478 76.8644 198.515 76.9388 198.532 77.0017C198.565 77.1274 198.578 77.2378 198.57 77.3326C196.89 77.9511 196.138 78.6162 196.311 79.3279C196.876 81.8136 197.479 84.2512 198.119 86.6409C199.099 90.2961 199.875 93.0369 200.449 94.8631L200.243 94.9435L184.659 83.6635L184.541 83.6951C185.039 85.7436 185.566 87.8055 186.122 89.8808C186.611 91.7045 187.221 93.8242 187.953 96.2399C188.16 96.9511 189.145 97.1546 190.909 96.8505C190.984 96.9736 191.032 97.0745 191.053 97.1531C191.074 97.2317 191.076 97.3156 191.058 97.4047C189.795 97.6924 188.673 97.9679 187.69 98.2312C187.061 98.3997 186.014 98.7056 184.549 99.1487C184.489 99.0806 184.448 99.0073 184.427 98.9287C184.391 98.795 184.382 98.6837 184.4 98.5945C186.093 97.964 186.845 97.2949 186.656 96.5875C186.093 94.1097 185.491 91.6759 184.851 89.2863C184.156 86.6922 183.521 84.4485 182.946 82.5552C182.132 82.1583 181.209 82.0604 180.176 82.2613C180.101 82.1718 180.053 82.0877 180.032 82.0091C180.001 81.8912 179.999 81.7905 180.027 81.7071ZM200.119 76.3235C201.425 76.041 203.061 75.6364 205.026 75.1098C212.45 80.5853 216.431 83.4952 216.97 83.8395C217.506 84.1759 217.775 84.3441 217.775 84.3441L217.869 84.3188C217.496 82.8012 217.186 81.5825 216.94 80.6628C216.453 78.8469 215.842 76.7233 215.106 74.2918C214.901 73.5885 213.913 73.39 212.141 73.6962C212.063 73.5317 212.019 73.4297 212.009 73.3904C211.992 73.3276 211.987 73.2447 211.993 73.142C213.271 72.85 214.397 72.5735 215.372 72.3123C216.001 72.1438 217.048 71.838 218.513 71.3948C218.57 71.4807 218.607 71.5551 218.624 71.618C218.657 71.7438 218.67 71.8541 218.662 71.949C216.982 72.5675 216.23 73.2326 216.403 73.9443C216.968 76.4299 217.571 78.8676 218.211 81.2573C219.191 84.9125 219.967 87.6532 220.541 89.4794L220.335 89.5599L204.751 78.2798L204.633 78.3114C205.131 80.36 205.658 82.4219 206.214 84.4971C206.703 86.3208 207.313 88.4405 208.045 90.8563C208.252 91.5674 209.237 91.7709 211.001 91.4669C211.076 91.59 211.124 91.6908 211.145 91.7695C211.166 91.8481 211.168 91.9319 211.15 92.0211C209.887 92.3088 208.765 92.5843 207.782 92.8476C207.153 93.0161 206.106 93.3219 204.641 93.7651C204.581 93.697 204.54 93.6236 204.519 93.545C204.483 93.4114 204.474 93.3 204.492 93.2109C206.185 92.5803 206.937 91.9113 206.748 91.2038C206.185 88.726 205.583 86.2923 204.943 83.9026C204.248 81.3086 203.613 79.0649 203.038 77.1716C202.224 76.7747 201.301 76.6767 200.268 76.8777C200.193 76.7881 200.145 76.7041 200.124 76.6255C200.093 76.5075 200.091 76.4069 200.119 76.3235ZM229.749 67.9546C230.354 67.7924 231.008 67.6847 231.709 67.6314C232.419 67.576 233.139 67.6064 233.87 67.7224C234.606 67.8285 235.336 68.0373 236.06 68.3488C236.789 68.6504 237.472 69.0782 238.109 69.632C238.746 70.1859 239.32 70.879 239.829 71.7114C240.347 72.5416 240.762 73.5424 241.076 74.7136C241.392 75.8927 241.538 76.974 241.516 77.9575C241.49 78.9331 241.341 79.82 241.066 80.6182C240.789 81.4085 240.41 82.1166 239.929 82.7426C239.454 83.3586 238.92 83.8976 238.328 84.3596C237.741 84.8117 237.118 85.1893 236.457 85.4926C235.799 85.8037 235.156 86.0435 234.527 86.212C233.93 86.3721 233.276 86.4798 232.566 86.5352C231.867 86.5963 231.15 86.5778 230.416 86.4796C229.68 86.3735 228.948 86.1736 228.22 85.8799C227.499 85.5762 226.816 85.1524 226.174 84.6085C225.537 84.0546 224.959 83.3626 224.442 82.5323C223.93 81.6921 223.517 80.6824 223.201 79.5033C222.876 78.2927 222.732 77.1897 222.769 76.1942C222.803 75.1908 222.962 74.2889 223.245 73.4887C223.535 72.6863 223.927 71.9789 224.42 71.3665C224.919 70.7442 225.462 70.207 226.048 69.755C226.643 69.3008 227.259 68.9292 227.898 68.6401C228.542 68.3411 229.159 68.1125 229.749 67.9546ZM229.917 68.8193C229.178 69.0173 228.555 69.315 228.046 69.7125C227.538 70.1099 227.123 70.5749 226.802 71.1073C226.479 71.6319 226.242 72.2094 226.091 72.8397C225.938 73.4621 225.849 74.1052 225.825 74.7688C225.808 75.4304 225.843 76.0951 225.929 76.7628C226.023 77.4285 226.151 78.0639 226.314 78.6692C226.469 79.2509 226.671 79.8457 226.918 80.4534C227.165 81.0612 227.461 81.6475 227.806 82.2122C228.149 82.769 228.54 83.2836 228.978 83.7559C229.424 84.2261 229.919 84.6116 230.463 84.9124C231.007 85.2132 231.6 85.4124 232.241 85.5102C232.888 85.598 233.589 85.5408 234.344 85.3386C235.083 85.1407 235.707 84.8469 236.218 84.4573C236.727 84.0598 237.142 83.5988 237.465 83.0742C237.786 82.5418 238.019 81.9654 238.164 81.345C238.316 80.7148 238.401 80.0728 238.419 79.419C238.444 78.7553 238.41 78.0946 238.318 77.4368C238.234 76.7769 238.111 76.1483 237.951 75.5509C237.789 74.9456 237.579 74.3323 237.319 73.7108C237.068 73.0873 236.766 72.4943 236.413 71.9317C236.068 71.367 235.673 70.8535 235.229 70.3911C234.783 69.9209 234.289 69.5394 233.747 69.2464C233.203 68.9457 232.612 68.7503 231.973 68.6604C231.333 68.5705 230.648 68.6235 229.917 68.8193ZM240.35 65.5436C242.144 65.1305 243.551 64.787 244.573 64.5132C246.059 64.1151 247.379 63.7277 248.533 63.351C248.598 63.4683 248.637 63.5506 248.65 63.5977C248.673 63.6842 248.684 63.7867 248.682 63.9051C247.653 64.2146 246.97 64.4817 246.634 64.7065C246.304 64.9213 246.179 65.1781 246.259 65.4768C246.262 65.4846 246.369 65.6664 246.582 66.0221L254.54 76.098L254.657 76.0664L256.163 63.2907C256.178 63.1602 256.161 63.0006 256.11 62.8119C256.041 62.5525 255.85 62.4057 255.537 62.3715C255.225 62.3372 254.712 62.3735 254 62.4803C253.922 62.3157 253.878 62.2138 253.867 62.1745C253.85 62.1116 253.845 62.0288 253.851 61.9261C254.878 61.7015 255.8 61.4797 256.617 61.2607C257.513 61.0206 258.403 60.7569 259.287 60.4696C259.343 60.5555 259.38 60.6299 259.397 60.6928C259.431 60.8185 259.444 60.9289 259.435 61.0238C258.86 61.2368 258.402 61.4902 258.059 61.7842C257.723 62.0682 257.507 62.4588 257.413 62.9558L255.274 80.4887L254.72 80.6372L243.67 66.8025C243.087 66.074 242.03 65.8391 240.499 66.0978C240.429 65.9647 240.387 65.8707 240.373 65.8156C240.352 65.737 240.344 65.6464 240.35 65.5436ZM268.495 57.8126C268.59 57.6945 268.701 57.6058 268.828 57.5464L279.594 71.9248C279.725 72.1003 279.9 72.2345 280.119 72.3276C280.335 72.4128 280.588 72.4589 280.876 72.4659C281.17 72.4629 281.421 72.4547 281.628 72.4414C281.841 72.418 282.097 72.3831 282.396 72.3367C282.461 72.454 282.505 72.5559 282.529 72.6424C282.554 72.7367 282.561 72.8274 282.551 72.9144C280.836 73.3065 279.558 73.6152 278.717 73.8406C277.805 74.0849 276.493 74.4702 274.781 74.9965C274.724 74.9106 274.683 74.8204 274.658 74.7261C274.63 74.6239 274.62 74.5215 274.626 74.4187C276.167 73.8203 276.881 73.3089 276.767 72.8844C276.732 72.7507 276.679 72.6174 276.61 72.4843L273.725 68.5562C273.202 68.6795 272.5 68.8591 271.62 69.095C271.203 69.2066 270.126 69.5119 268.39 70.011L267.815 75.0811L267.853 75.2226C267.874 75.3012 267.905 75.3727 267.948 75.4371C267.998 75.4994 268.062 75.5497 268.14 75.5879C268.225 75.6239 268.305 75.6532 268.378 75.6757C268.452 75.6981 268.549 75.7142 268.669 75.7241C268.796 75.7239 268.901 75.7251 268.986 75.7276C269.077 75.7202 269.196 75.7093 269.344 75.6949C269.5 75.6785 269.619 75.6676 269.702 75.6623C269.782 75.6491 269.9 75.6303 270.053 75.606C270.215 75.5796 270.328 75.5619 270.393 75.5529C270.458 75.6703 270.502 75.7722 270.525 75.8587C270.538 75.9058 270.545 75.9965 270.548 76.1307C268.77 76.5396 267.771 76.7736 267.551 76.8325C267.126 76.9463 266.042 77.2705 264.298 77.8052C264.242 77.7193 264.201 77.6292 264.175 77.5348C264.148 77.4326 264.137 77.3302 264.143 77.2274C265.728 76.6007 266.552 75.9502 266.616 75.276L268.261 61.1359L267.815 60.5097C268.183 60.0909 268.407 59.6854 268.488 59.2932C268.576 58.8989 268.578 58.4054 268.495 57.8126ZM271.373 68.1753C272.096 67.9815 272.664 67.8209 273.077 67.6936L269.282 62.4926L269.235 62.5053L268.531 68.8863C269.278 68.7198 270.225 68.4828 271.373 68.1753ZM280.275 54.8458C281.14 54.6477 282.216 54.3848 283.501 54.0572C284.787 53.7296 286.294 53.3341 288.023 52.8707C289.753 52.4074 291.256 51.9962 292.533 51.6371C293.818 51.276 294.889 50.9638 295.745 50.7007C295.883 51.0261 296.029 51.3365 296.184 51.632C296.337 51.9196 296.546 52.2299 296.812 52.563L297.381 53.27L298.69 54.7137C298.669 54.8542 298.56 54.9972 298.363 55.1426C297.963 54.719 297.511 54.3348 297.005 53.9899C296.5 53.6451 295.9 53.3719 295.206 53.1704C294.52 52.9668 293.715 52.8579 292.793 52.8438C291.879 52.8276 290.809 52.9374 289.583 53.1732C289.807 54.1663 290.074 55.287 290.383 56.5353C290.698 57.7737 291.058 59.1514 291.465 60.6685C291.874 62.1935 292.252 63.5749 292.601 64.8127C292.957 66.0484 293.287 67.1522 293.589 68.1243C293.648 68.3108 293.765 68.452 293.943 68.5477C294.118 68.6355 294.339 68.6901 294.606 68.7112C294.88 68.7303 295.186 68.7242 295.523 68.6928C295.866 68.6515 296.23 68.5961 296.616 68.5264C296.683 68.6516 296.728 68.7535 296.749 68.8321C296.768 68.9029 296.773 68.9857 296.765 69.0806C295.431 69.3873 294.057 69.7302 292.642 70.1093C291.235 70.4863 289.874 70.8764 288.558 71.2795C288.503 71.2015 288.467 71.1271 288.448 71.0564C288.427 70.9777 288.414 70.8674 288.41 70.7254L288.96 70.5147C289.158 70.4364 289.377 70.3439 289.618 70.2372C289.857 70.1226 290.072 69.9976 290.263 69.8621C290.462 69.7245 290.621 69.5768 290.739 69.4188C290.856 69.2609 290.892 69.0955 290.846 68.9225L290.83 68.8636C290.484 67.4145 290.156 66.0659 289.847 64.8175C289.538 63.5692 289.24 62.4106 288.953 61.3415C288.669 60.2803 288.35 59.1358 287.996 57.908C287.639 56.6723 287.249 55.3405 286.824 53.9125C285.709 54.2787 284.763 54.6963 283.988 55.1654C283.217 55.6244 282.574 56.1169 282.058 56.6428C281.54 57.1608 281.138 57.7065 280.854 58.2798C280.567 58.8453 280.359 59.4193 280.228 60.0018C279.985 59.9743 279.819 59.9051 279.73 59.794L279.992 58.6496L280.104 58.0763C280.15 57.8366 280.194 57.5931 280.237 57.3456C280.28 57.0981 280.313 56.8449 280.337 56.5859C280.366 56.3169 280.376 56.0404 280.367 55.7563C280.356 55.4643 280.326 55.1608 280.275 54.8458ZM298.527 49.9551C300.305 49.5461 301.681 49.2111 302.656 48.9499C303.631 48.6887 304.99 48.2908 306.734 47.7561C306.799 47.8735 306.838 47.9557 306.851 48.0029C306.874 48.0893 306.885 48.1918 306.883 48.3103C306.529 48.4386 306.244 48.553 306.027 48.6534C305.815 48.7438 305.555 48.8725 305.246 49.0396C304.944 49.2046 304.727 49.3849 304.594 49.5806C304.459 49.7684 304.415 49.9656 304.462 50.1721C305.076 52.8721 305.692 55.3737 306.309 57.6769C306.759 59.3591 307.389 61.5367 308.198 64.2098C308.261 64.412 308.399 64.5647 308.612 64.6677C308.822 64.7629 309.1 64.8066 309.443 64.7988C309.794 64.789 310.085 64.7742 310.316 64.7545C310.552 64.7249 310.855 64.6773 311.225 64.6119C311.282 64.6978 311.326 64.7997 311.358 64.9176C311.375 64.9805 311.38 65.0633 311.374 65.1661C310.025 65.477 308.651 65.8199 307.252 66.1948C305.837 66.5739 304.475 66.964 303.167 67.365C303.11 67.2791 303.074 67.2047 303.057 67.1418C303.021 67.0082 303.008 66.8979 303.019 66.8108C303.248 66.7241 303.432 66.6539 303.569 66.6002C303.706 66.5466 303.891 66.4675 304.125 66.3629C304.366 66.2562 304.554 66.1592 304.691 66.0721C304.834 65.9749 304.977 65.8649 305.121 65.7421C305.265 65.6192 305.361 65.4923 305.411 65.3611C305.468 65.2279 305.477 65.0906 305.439 64.9491C304.874 62.4634 304.257 59.9707 303.587 57.471C302.905 54.9241 302.277 52.7376 301.703 50.9114C301.64 50.7091 301.504 50.5604 301.293 50.4652C301.08 50.3622 300.798 50.3156 300.447 50.3255C300.103 50.3332 299.813 50.3519 299.577 50.3816C299.346 50.4012 299.046 50.4438 298.676 50.5092C298.607 50.3762 298.565 50.2821 298.55 50.2271C298.529 50.1485 298.521 50.0578 298.527 49.9551ZM318.088 44.2843C318.693 44.1221 319.346 44.0144 320.048 43.9611C320.758 43.9057 321.478 43.9361 322.208 44.0521C322.945 44.1581 323.675 44.367 324.398 44.6785C325.128 44.9801 325.811 45.4079 326.448 45.9617C327.085 46.5156 327.659 47.2087 328.168 48.0411C328.685 48.8713 329.101 49.8721 329.415 51.0433C329.731 52.2224 329.877 53.3037 329.854 54.2872C329.829 55.2628 329.679 56.1497 329.405 56.9478C329.128 57.7382 328.749 58.4463 328.268 59.0723C327.792 59.6883 327.259 60.2273 326.666 60.6893C326.08 61.1414 325.456 61.519 324.796 61.8223C324.138 62.1334 323.495 62.3732 322.866 62.5417C322.269 62.7018 321.615 62.8095 320.905 62.8649C320.205 62.926 319.489 62.9075 318.755 62.8093C318.018 62.7032 317.287 62.5033 316.559 62.2096C315.838 61.9059 315.155 61.4821 314.512 60.9382C313.875 60.3843 313.298 59.6923 312.781 58.862C312.269 58.0218 311.855 57.0121 311.54 55.833C311.215 54.6224 311.071 53.5194 311.108 52.5239C311.142 51.5205 311.301 50.6186 311.583 49.8183C311.874 49.0159 312.266 48.3086 312.759 47.6962C313.258 47.0739 313.8 46.5367 314.387 46.0847C314.981 45.6305 315.598 45.2589 316.237 44.9698C316.881 44.6707 317.498 44.4422 318.088 44.2843ZM318.256 45.149C317.517 45.347 316.893 45.6447 316.385 46.0422C315.876 46.4396 315.462 46.9046 315.141 47.437C314.818 47.9616 314.581 48.5391 314.43 49.1694C314.277 49.7918 314.188 50.4348 314.163 51.0985C314.147 51.7601 314.182 52.4248 314.268 53.0925C314.362 53.7582 314.49 54.3936 314.652 54.9989C314.808 55.5806 315.01 56.1753 315.257 56.7831C315.504 57.3909 315.8 57.9772 316.145 58.5419C316.488 59.0987 316.879 59.6133 317.317 60.0856C317.763 60.5558 318.258 60.9413 318.802 61.2421C319.346 61.5428 319.939 61.7421 320.58 61.8399C321.227 61.9277 321.928 61.8705 322.682 61.6683C323.421 61.4703 324.046 61.1766 324.557 60.787C325.065 60.3895 325.481 59.9285 325.804 59.4039C326.125 58.8715 326.358 58.2951 326.503 57.6747C326.654 57.0444 326.739 56.4024 326.758 55.7487C326.782 55.085 326.749 54.4243 326.657 53.7665C326.572 53.1066 326.45 52.478 326.29 51.8806C326.128 51.2753 325.917 50.6619 325.658 50.0405C325.407 49.417 325.105 48.824 324.752 48.2614C324.407 47.6967 324.012 47.1832 323.568 46.7208C323.122 46.2506 322.628 45.869 322.086 45.5761C321.542 45.2754 320.951 45.08 320.311 44.9901C319.672 44.9002 318.987 44.9531 318.256 45.149ZM329.562 41.6395C330.868 41.3569 332.503 40.9524 334.468 40.4258C341.892 45.9013 345.873 48.8112 346.412 49.1555C346.949 49.4919 347.217 49.6601 347.217 49.6601L347.311 49.6348C346.938 48.1171 346.629 46.8984 346.382 45.9787C345.896 44.1629 345.285 42.0393 344.549 39.6078C344.344 38.9045 343.355 38.706 341.584 39.0121C341.506 38.8476 341.462 38.7457 341.451 38.7064C341.434 38.6435 341.429 38.5607 341.435 38.458C342.713 38.166 343.84 37.8895 344.815 37.6283C345.444 37.4598 346.491 37.154 347.956 36.7108C348.012 36.7967 348.049 36.8711 348.066 36.934C348.1 37.0598 348.112 37.1701 348.104 37.265C346.425 37.8835 345.672 38.5486 345.846 39.2602C346.411 41.7459 347.013 44.1836 347.654 46.5733C348.633 50.2285 349.41 52.9692 349.983 54.7954L349.777 54.8759L334.193 43.5958L334.075 43.6274C334.574 45.676 335.101 47.7379 335.657 49.8131C336.145 51.6368 336.756 53.7565 337.487 56.1723C337.694 56.8834 338.68 57.0869 340.444 56.7829C340.519 56.906 340.567 57.0068 340.588 57.0854C340.609 57.164 340.61 57.2479 340.592 57.3371C339.33 57.6248 338.207 57.9003 337.224 58.1636C336.596 58.3321 335.549 58.6379 334.083 59.081C334.023 59.013 333.982 58.9396 333.961 58.861C333.925 58.7274 333.917 58.616 333.935 58.5269C335.628 57.8963 336.38 57.2273 336.19 56.5198C335.627 54.042 335.026 51.6083 334.385 49.2186C333.69 46.6246 333.055 44.3809 332.481 42.4876C331.667 42.0907 330.743 41.9927 329.71 42.1937C329.636 42.1041 329.588 42.02 329.567 41.9414C329.535 41.8235 329.533 41.7229 329.562 41.6395Z" fill="white"/>
<path d="M513.552 44.0276C514.824 44.4359 516.443 44.9034 518.408 45.4299C522.1 53.8837 524.093 58.3943 524.387 58.9619C524.684 59.5216 524.832 59.8014 524.832 59.8014L524.926 59.8267C525.362 58.3259 525.703 57.1156 525.95 56.1959C526.436 54.38 526.969 52.2353 527.547 49.7617C527.721 49.05 526.965 48.3839 525.277 47.7633C525.292 47.582 525.305 47.4716 525.315 47.4323C525.332 47.3694 525.369 47.295 525.426 47.2091C526.679 47.5954 527.793 47.9191 528.767 48.1803C529.396 48.3488 530.456 48.6075 531.946 48.9563C531.952 49.059 531.947 49.1419 531.93 49.2047C531.897 49.3305 531.852 49.4324 531.798 49.5105C530.034 49.2064 529.05 49.406 528.844 50.1093C528.091 52.5444 527.394 54.9568 526.754 57.3464C525.774 61.0017 525.076 63.7635 524.66 65.6318L524.441 65.5985L516.585 48.0376L516.467 48.006C515.874 50.0293 515.3 52.0785 514.744 54.1537C514.255 55.9774 513.724 58.1182 513.149 60.5761C512.973 61.2956 513.725 61.9647 515.405 62.5831C515.408 62.7273 515.399 62.8387 515.378 62.9173C515.357 62.9959 515.316 63.0693 515.256 63.1373C514.019 62.7553 512.909 62.4326 511.926 62.1693C511.297 62.0008 510.238 61.7421 508.747 61.3933C508.729 61.3042 508.731 61.2203 508.752 61.1417C508.787 61.0081 508.835 60.9072 508.896 60.8392C510.677 61.1396 511.663 60.936 511.852 60.2286C512.604 57.8013 513.3 55.3928 513.94 53.0032C514.635 50.4091 515.207 48.1486 515.656 46.2216C515.15 45.4709 514.399 44.9242 513.404 44.5818C513.384 44.467 513.385 44.3702 513.406 44.2916C513.437 44.1737 513.486 44.0857 513.552 44.0276ZM533.644 49.4112C535.388 49.9459 536.755 50.346 537.746 50.6114C544.501 52.3792 548.243 53.3483 548.973 53.5185C548.864 54.3319 548.864 55.1324 548.974 55.9199C549.085 56.6996 549.266 57.5485 549.517 58.4667C549.418 58.5835 549.252 58.6527 549.019 58.6745C548.879 58.0641 548.665 57.4969 548.376 56.9729C548.086 56.4488 547.685 55.9199 547.17 55.3862C546.664 54.8546 545.987 54.3487 545.138 53.8685C544.297 53.3905 543.306 52.9563 542.163 52.566L538.909 51.694C537.916 54.9917 537.194 57.4816 536.743 59.1638L540.104 60.0642C540.332 60.1253 540.548 60.1665 540.753 60.1877C540.968 60.2031 541.173 60.1908 541.37 60.1507C541.568 60.1027 541.744 60.0573 541.899 60.0145C542.064 59.9659 542.239 59.8781 542.424 59.7509C542.612 59.6159 542.768 59.506 542.892 59.4212C543.018 59.3286 543.179 59.1823 543.376 58.9822C543.573 58.7822 543.725 58.6249 543.831 58.5102C543.938 58.3955 544.1 58.2157 544.317 57.9706C544.542 57.7276 544.713 57.5459 544.829 57.4255C545.048 57.5851 545.17 57.7273 545.195 57.8521C544.709 58.3453 544.258 58.9151 543.84 59.5615C543.423 60.2079 543.151 60.7669 543.024 61.2386C542.725 62.3548 542.789 63.6903 543.214 65.2451C543.118 65.354 542.94 65.4201 542.681 65.4434C542.637 65.263 542.575 65.0064 542.496 64.6734C542.426 64.3347 542.369 64.0751 542.325 63.8947C542.281 63.7143 542.217 63.4823 542.133 63.1986C542.048 62.9149 541.965 62.6904 541.883 62.5252C541.809 62.3621 541.704 62.1738 541.567 61.9602C541.438 61.7488 541.298 61.5807 541.146 61.4557C540.996 61.3229 540.815 61.1984 540.602 61.0823C540.398 60.9605 540.167 60.8648 539.908 60.7953L536.547 59.8949C536.212 61.1447 535.581 63.6757 534.652 67.4877L538.413 68.4955C539.598 68.7287 540.673 68.8484 541.641 68.8548C542.616 68.8633 543.455 68.7639 544.16 68.5567C544.872 68.3515 545.484 68.0943 545.997 67.7851C546.509 67.4759 546.978 67.092 547.405 66.6333C547.596 66.7688 547.706 66.9078 547.735 67.0504C547.675 67.1185 547.522 67.2798 547.277 67.5343C547.032 67.7887 546.867 67.9636 546.783 68.0589C546.7 68.1464 546.556 68.3058 546.351 68.5373C546.156 68.763 546.005 68.9499 545.897 69.0982C545.792 69.2385 545.664 69.419 545.512 69.6395C545.368 69.8621 545.237 70.084 545.119 70.305C545.011 70.5204 544.908 70.7457 544.812 70.9809L534.459 68.2069C532.329 67.6361 530.495 67.17 528.957 66.8086C528.951 66.7058 528.956 66.623 528.973 66.5601C528.988 66.5051 529.032 66.4032 529.106 66.2544C529.476 66.3198 529.775 66.3663 530.004 66.3939C530.242 66.4156 530.533 66.4304 530.876 66.4381C531.228 66.448 531.509 66.4054 531.719 66.3102C531.932 66.2072 532.07 66.0545 532.133 65.8523C532.886 63.4171 533.598 60.9497 534.268 58.45C534.95 55.9031 535.5 53.6955 535.916 51.8272C535.963 51.6207 535.919 51.4235 535.784 51.2357C535.651 51.04 535.43 50.8586 535.121 50.6916C534.82 50.5266 534.559 50.3979 534.34 50.3053C534.13 50.2071 533.849 50.0938 533.496 49.9654C533.502 49.8155 533.513 49.713 533.527 49.658C533.54 49.6108 533.579 49.5286 533.644 49.4112ZM552.286 54.4063C554.046 54.9452 555.464 55.3589 556.541 55.6475C557.846 55.9971 559.1 56.2995 560.304 56.5547C560.302 56.6889 560.294 56.7795 560.281 56.8267C560.258 56.9132 560.216 57.0072 560.155 57.1089C559.264 56.9123 558.617 56.8273 558.214 56.8541C557.821 56.8751 557.585 57.0311 557.508 57.3219C557.47 57.4634 557.51 57.7355 557.63 58.1383L559.295 63.5258L564.112 59.5591C564.226 59.4465 564.308 59.2959 564.359 59.1072C564.424 58.8635 564.314 58.6445 564.029 58.4502C563.755 58.2502 563.316 58.0316 562.714 57.7944C562.729 57.6131 562.742 57.5028 562.752 57.4634C562.769 57.4006 562.806 57.3262 562.862 57.2403C563.864 57.5591 564.777 57.8292 565.603 58.0503C566.656 58.3326 567.637 58.5702 568.546 58.7631C568.552 58.8659 568.547 58.9487 568.53 59.0116C568.496 59.1373 568.452 59.2392 568.397 59.3173C567.069 59.0877 566.049 59.2778 565.338 59.8876L559.633 64.5767L562.472 73.7919C562.835 74.6982 563.707 75.4077 565.086 75.9205C565.084 76.0547 565.073 76.1572 565.054 76.2279C565.033 76.3065 564.994 76.3888 564.937 76.4747C563.178 75.9358 561.72 75.5115 560.565 75.2019C559 74.7827 557.624 74.4477 556.436 74.1967C556.438 74.0625 556.446 73.9719 556.458 73.9247C556.486 73.8225 556.528 73.7285 556.584 73.6426C558.421 74.0505 559.403 74.0186 559.529 73.547C559.582 73.3505 559.588 73.1709 559.547 73.0084L557.483 66.3261L551.795 70.9059C551.639 71.0494 551.538 71.2036 551.494 71.3687C551.429 71.6124 551.549 71.8385 551.856 72.0469C552.17 72.2575 552.636 72.4835 553.254 72.7249C553.243 72.8905 553.231 73.0008 553.216 73.0559C553.199 73.1187 553.162 73.1931 553.105 73.279C552.104 72.9602 551.151 72.6796 550.247 72.4374C549.194 72.1552 548.217 71.9186 547.316 71.7278C547.308 71.5993 547.31 71.5155 547.32 71.4762C547.356 71.3425 547.404 71.2417 547.464 71.1736C548.746 71.3906 549.763 71.1955 550.515 70.5883L557.169 65.2815L554.57 56.8254C554.458 56.5511 554.315 56.3148 554.14 56.1164C553.976 55.9123 553.77 55.739 553.521 55.5967C553.275 55.4465 553.065 55.3353 552.89 55.2633C552.718 55.1834 552.467 55.0825 552.137 54.9605C552.144 54.8105 552.154 54.7081 552.169 54.653C552.19 54.5744 552.229 54.4922 552.286 54.4063ZM570.185 59.2023C571.501 59.6054 572.862 59.9955 574.269 60.3725C575.684 60.7516 577.058 61.0945 578.391 61.4012C578.389 61.5354 578.382 61.6261 578.369 61.6733C578.354 61.7283 578.312 61.8223 578.243 61.9554C578.001 61.9158 577.807 61.8849 577.661 61.8627C577.515 61.8405 577.311 61.8154 577.049 61.7873C576.795 61.7613 576.582 61.7547 576.41 61.7676C576.248 61.7748 576.074 61.7955 575.888 61.8299C575.702 61.8643 575.551 61.9249 575.435 62.0118C575.327 62.1008 575.254 62.216 575.216 62.3575C574.904 63.3946 574.119 66.2634 572.859 70.9642C572.259 73.2045 572.196 74.9317 572.671 76.1458C573.154 77.362 574.296 78.2113 576.096 78.6937C577.912 79.1802 579.458 79.0049 580.736 78.1677C582.015 77.3226 582.931 75.8703 583.483 73.8108C584.488 70.0612 585.219 67.2368 585.677 65.3376C585.851 64.6259 585.098 63.9609 583.419 63.3424C583.434 63.161 583.447 63.0507 583.457 63.0114C583.474 62.9485 583.511 62.8741 583.568 62.7882C584.805 63.1703 585.915 63.4929 586.897 63.7562C587.526 63.9247 588.59 64.1844 590.088 64.5353C590.094 64.6381 590.089 64.7209 590.072 64.7838C590.038 64.9096 589.994 65.0115 589.94 65.0895C588.192 64.7897 587.203 64.9882 586.974 65.6852C586.395 67.5349 585.6 70.3425 584.591 74.1078C584.284 75.2554 583.859 76.2412 583.319 77.0652C582.78 77.8813 582.206 78.4984 581.597 78.9165C580.988 79.3346 580.325 79.6373 579.609 79.8247C578.901 80.0141 578.243 80.0988 577.633 80.0787C577.023 80.0585 576.428 79.9705 575.846 79.8147C575.068 79.6061 574.38 79.3755 573.782 79.1226C573.184 78.8697 572.618 78.5621 572.083 78.1998C571.55 77.8296 571.117 77.4018 570.784 76.9165C570.453 76.4233 570.195 75.8613 570.01 75.2305C569.825 74.5996 569.755 73.8691 569.801 73.0388C569.847 72.2084 570.005 71.2863 570.277 70.2722L570.795 68.3385C571.501 65.7052 572.054 63.4651 572.457 61.6182C572.504 61.4117 572.46 61.2146 572.324 61.0267C572.192 60.831 571.971 60.6497 571.661 60.4826C571.36 60.3176 571.1 60.1889 570.88 60.0964C570.671 59.9981 570.389 59.8848 570.036 59.7564C570.043 59.6065 570.053 59.5041 570.068 59.449C570.081 59.4019 570.12 59.3196 570.185 59.2023ZM601.427 72.9193C601.514 71.4008 601.263 70.1371 600.674 69.1284C600.092 68.1217 599.244 67.4688 598.127 67.1697C597.035 66.8769 596.116 66.9089 595.372 67.2655C594.636 67.6242 594.152 68.2359 593.92 69.1006C593.791 69.5801 593.728 69.9887 593.73 70.3263C593.733 70.6639 593.827 71.0178 594.015 71.3881C594.204 71.7506 594.524 72.1143 594.973 72.4791C595.425 72.8361 596.037 73.2274 596.807 73.653C597.226 73.8831 597.588 74.0895 597.892 74.2723C598.205 74.4572 598.54 74.6859 598.897 74.9584C599.261 75.233 599.564 75.5036 599.804 75.7702C600.052 76.0389 600.284 76.3537 600.499 76.7146C600.724 77.0698 600.881 77.4406 600.971 77.827C601.07 78.2156 601.111 78.6565 601.097 79.1498C601.093 79.6373 601.018 80.1523 600.873 80.6946C600.679 81.4178 600.366 82.0502 599.935 82.5917C599.505 83.1254 599.019 83.5426 598.475 83.8434C597.931 84.1441 597.337 84.3641 596.693 84.5033C596.049 84.6425 595.418 84.701 594.801 84.6788C594.183 84.6565 593.588 84.5685 593.014 84.4148C591.269 83.9472 589.531 82.9971 587.8 81.5644C588.067 80.726 588.226 80.2085 588.279 80.012C588.622 78.7307 588.859 77.4249 588.988 76.0946C589.089 76.0627 589.183 76.0584 589.269 76.0815C589.379 76.111 589.47 76.1649 589.542 76.2431C589.435 77.3013 589.466 78.2701 589.635 79.1494C589.812 80.0308 590.086 80.7659 590.46 81.3545C590.835 81.9352 591.255 82.4102 591.721 82.7792C592.196 83.1426 592.705 83.3969 593.248 83.5422C594.482 83.8729 595.514 83.8084 596.345 83.3486C597.186 82.883 597.748 82.1236 598.03 81.0702C598.314 80.009 598.28 79.1448 597.928 78.4776C597.586 77.8046 596.769 77.1138 595.476 76.4051C593.862 75.5094 592.681 74.5104 591.932 73.4081C591.192 72.3 591.009 71.0504 591.382 69.659C591.578 68.928 591.87 68.3071 592.26 67.7965C592.659 67.2801 593.094 66.8995 593.564 66.6547C594.044 66.4042 594.57 66.2334 595.142 66.1424C595.716 66.0434 596.263 66.0171 596.781 66.0633C597.309 66.1038 597.833 66.1935 598.352 66.3326C599.908 66.7496 601.431 67.5451 602.919 68.719C602.748 69.1702 602.594 69.6473 602.46 70.1504C602.144 71.3295 601.984 72.302 601.981 73.0678C601.869 73.0798 601.777 73.0762 601.706 73.0573C601.627 73.0362 601.534 72.9902 601.427 72.9193Z" fill="white"/>
<defs>
<filter id="filter0_d_103_3" x="0" y="358" width="851" height="567.088" filterUnits="userSpaceOnUse" color-interpolation-filters="sRGB">
<feFlood flood-opacity="0" result="BackgroundImageFix"/>
<feColorMatrix in="SourceAlpha" type="matrix" values="0 0 0 0 0 0 0 0 0 0 0 0 0 0 0 0 0 0 127 0" result="hardAlpha"/>
<feOffset dx="5" dy="5"/>
<feGaussianBlur stdDeviation="5"/>
<feComposite in2="hardAlpha" operator="out"/>
<feColorMatrix type="matrix" values="0 0 0 0 0 0 0 0 0 0 0 0 0 0 0 0 0 0 0.25 0"/>
<feBlend mode="normal" in2="BackgroundImageFix" result="effect1_dropShadow_103_3"/>
<feBlend mode="normal" in="SourceGraphic" in2="effect1_dropShadow_103_3" result="shape"/>
</filter>
<filter id="filter1_d_103_3" x="297" y="147" width="299" height="237" filterUnits="userSpaceOnUse" color-interpolation-filters="sRGB">
<feFlood flood-opacity="0" result="BackgroundImageFix"/>
<feColorMatrix in="SourceAlpha" type="matrix" values="0 0 0 0 0 0 0 0 0 0 0 0 0 0 0 0 0 0 127 0" result="hardAlpha"/>
<feOffset dx="2" dy="2"/>
<feGaussianBlur stdDeviation="2.5"/>
<feComposite in2="hardAlpha" operator="out"/>
<feColorMatrix type="matrix" values="0 0 0 0 0 0 0 0 0 0 0 0 0 0 0 0 0 0 0.25 0"/>
<feBlend mode="normal" in2="BackgroundImageFix" result="effect1_dropShadow_103_3"/>
<feBlend mode="normal" in="SourceGraphic" in2="effect1_dropShadow_103_3" result="shape"/>
</filter>
<linearGradient id="paint0_linear_103_3" x1="582" y1="0" x2="582" y2="812" gradientUnits="userSpaceOnUse">
<stop stop-color="#D5C069"/>
<stop offset="1" stop-color="#DECC84"/>
</linearGradient>
<linearGradient id="paint1_linear_103_3" x1="260" y1="0" x2="260" y2="812" gradientUnits="userSpaceOnUse">
<stop stop-color="#A0830E"/>
<stop offset="1" stop-color="#B59410" stop-opacity="0.99"/>
</linearGradient>
<linearGradient id="paint2_linear_103_3" x1="208.148" y1="815.058" x2="174.297" y2="243.463" gradientUnits="userSpaceOnUse">
<stop stop-color="#B78628"/>
<stop offset="1" stop-color="#FFAF38" stop-opacity="0.76"/>
</linearGradient>
<linearGradient id="paint3_linear_103_3" x1="647.711" y1="814.931" x2="613.865" y2="243.075" gradientUnits="userSpaceOnUse">
<stop stop-color="#B78628"/>
<stop offset="1" stop-color="#FFAF38" stop-opacity="0.76"/>
</linearGradient>
<linearGradient id="paint4_linear_103_3" x1="421.177" y1="857.668" x2="419.735" y2="822.623" gradientUnits="userSpaceOnUse">
<stop stop-color="#B78628"/>
<stop offset="1" stop-color="#FFAF38" stop-opacity="0.76"/>
</linearGradient>
</defs>
</svg>
