<svg width="185" height="50" viewBox="0 0 185 50" fill="none" xmlns="http://www.w3.org/2000/svg">
<path d="M48.28 40V12.24H50.92L62.68 31.56H60.88L72.64 12.24H75.28V40H71.52V18.84L72.4 19.08L63.12 34.32H60.48L51.2 19.08L52.04 18.84V40H48.28ZM94.3947 40.4C92.448 40.4 90.6214 40.04 88.9147 39.32C87.2347 38.5733 85.7547 37.5467 84.4747 36.24C83.2214 34.9333 82.2347 33.4133 81.5147 31.68C80.7947 29.9467 80.4347 28.08 80.4347 26.08C80.4347 24.08 80.7947 22.2267 81.5147 20.52C82.2347 18.7867 83.2347 17.2667 84.5147 15.96C85.7947 14.6533 87.288 13.64 88.9947 12.92C90.728 12.2 92.608 11.84 94.6347 11.84C96.848 11.84 98.888 12.2667 100.755 13.12C102.621 13.9733 104.181 15.2 105.435 16.8L102.835 19.4C101.955 18.12 100.795 17.1467 99.3547 16.48C97.9147 15.7867 96.3414 15.44 94.6347 15.44C92.608 15.44 90.808 15.8933 89.2347 16.8C87.688 17.7067 86.4747 18.96 85.5947 20.56C84.7414 22.16 84.3147 24 84.3147 26.08C84.3147 28.1867 84.7547 30.04 85.6347 31.64C86.5147 33.24 87.7014 34.4933 89.1947 35.4C90.688 36.3067 92.3947 36.76 94.3147 36.76C96.2614 36.76 97.9414 36.3867 99.3547 35.64C100.795 34.8933 101.901 33.8 102.675 32.36C103.448 30.8933 103.835 29.1067 103.835 27L106.115 28.64H94.1147V25.2H107.715V25.76C107.715 28.9867 107.141 31.6933 105.995 33.88C104.875 36.04 103.301 37.6667 101.275 38.76C99.2747 39.8533 96.9814 40.4 94.3947 40.4ZM112.132 40V21H115.732V40H112.132ZM124.972 40V28.52C124.972 27.1067 124.532 26 123.652 25.2C122.799 24.3733 121.719 23.96 120.412 23.96C119.532 23.96 118.746 24.1467 118.052 24.52C117.359 24.8933 116.799 25.4133 116.372 26.08C115.946 26.7467 115.732 27.5467 115.732 28.48L114.252 27.76C114.252 26.32 114.559 25.0667 115.172 24C115.812 22.9333 116.679 22.1067 117.772 21.52C118.866 20.9067 120.092 20.6 121.452 20.6C122.786 20.6 123.986 20.8933 125.052 21.48C126.146 22.0667 126.999 22.8933 127.612 23.96C128.252 25.0267 128.572 26.2933 128.572 27.76V40H124.972ZM137.812 40V28.52C137.812 27.1067 137.372 26 136.492 25.2C135.639 24.3733 134.572 23.96 133.292 23.96C132.412 23.96 131.612 24.1467 130.892 24.52C130.199 24.8933 129.639 25.4133 129.212 26.08C128.786 26.7467 128.572 27.5467 128.572 28.48L126.532 27.76C126.612 26.2933 126.999 25.04 127.692 24C128.412 22.9333 129.332 22.1067 130.452 21.52C131.572 20.9067 132.799 20.6 134.132 20.6C135.519 20.6 136.759 20.8933 137.852 21.48C138.946 22.0667 139.812 22.8933 140.452 23.96C141.119 25.0267 141.452 26.3067 141.452 27.8V40H137.812ZM154.431 40.4C152.698 40.4 151.124 39.9733 149.711 39.12C148.298 38.24 147.178 37.0533 146.351 35.56C145.551 34.0667 145.151 32.3867 145.151 30.52C145.151 28.6533 145.551 26.9733 146.351 25.48C147.178 23.9867 148.284 22.8 149.671 21.92C151.084 21.04 152.671 20.6 154.431 20.6C155.871 20.6 157.151 20.9067 158.271 21.52C159.418 22.1067 160.338 22.9333 161.031 24C161.724 25.04 162.111 26.2533 162.191 27.64V33.36C162.111 34.72 161.724 35.9333 161.031 37C160.364 38.0667 159.458 38.9067 158.311 39.52C157.191 40.1067 155.898 40.4 154.431 40.4ZM155.031 37C156.818 37 158.258 36.4 159.351 35.2C160.444 33.9733 160.991 32.4133 160.991 30.52C160.991 29.2133 160.738 28.08 160.231 27.12C159.751 26.1333 159.058 25.3733 158.151 24.84C157.244 24.28 156.191 24 154.991 24C153.791 24 152.724 24.28 151.791 24.84C150.884 25.4 150.164 26.1733 149.631 27.16C149.124 28.12 148.871 29.2267 148.871 30.48C148.871 31.76 149.124 32.8933 149.631 33.88C150.164 34.84 150.898 35.6 151.831 36.16C152.764 36.72 153.831 37 155.031 37ZM160.751 40V34.88L161.431 30.24L160.751 25.64V21H164.391V40H160.751ZM169.672 40V21H173.272V40H169.672ZM171.472 17.2C170.806 17.2 170.259 16.9867 169.832 16.56C169.406 16.1067 169.192 15.5467 169.192 14.88C169.192 14.24 169.406 13.7067 169.832 13.28C170.259 12.8267 170.806 12.6 171.472 12.6C172.139 12.6 172.686 12.8267 173.112 13.28C173.539 13.7067 173.752 14.24 173.752 14.88C173.752 15.5467 173.539 16.1067 173.112 16.56C172.686 16.9867 172.139 17.2 171.472 17.2ZM178.577 40V11.44H182.178V40H178.577Z" fill="white"/>
<g clip-path="url(#clip0_2_9)">
<path d="M4.25002 13.5C2.1797 13.5 0.500016 14.9697 0.500016 16.7812C0.500016 17.8135 1.0547 18.7842 2.00002 19.4062L20.5 31C20.5 31 38.0547 20.0283 39 19.4062C39.9453 18.7842 40.5 17.8135 40.5 16.7812C40.5 14.9697 38.8203 13.5 36.75 13.5H4.25002ZM0.500016 21.1562V35.375C1.52849e-05 37.5 2.7422 39.75 5.50002 39.75H35.5C38.2578 39.75 40.5 37.7881 40.5 35.375V21.1562L20.5 33.5C22.2405 32.4258 18.7188 34.6689 20.5 33.5L0.500016 21.1562Z" fill="white"/>
<path d="M0 35.1581V21L3.5 23.5V39.4127C1.5 38.2127 0.166667 36.1054 0 35.1581Z" stroke="black" stroke-width="1.2"/>
<path d="M40.5 35.1581V21L37 23.5V39.4127C39 38.5 40.3333 36.1054 40.5 35.1581Z" stroke="black" stroke-width="1.2"/>
</g>
<defs>
<clipPath id="clip0_2_9">
<rect width="40" height="35" fill="white" transform="translate(0 9)"/>
</clipPath>
</defs>
</svg>
